<?xml version="1.0" encoding="utf-8" standalone="no"?>
<!DOCTYPE svg PUBLIC "-//W3C//DTD SVG 1.1//EN"
  "http://www.w3.org/Graphics/SVG/1.1/DTD/svg11.dtd">
<svg xmlns:xlink="http://www.w3.org/1999/xlink" width="572.7075pt" height="395.512536pt" viewBox="0 0 572.7075 395.512536" xmlns="http://www.w3.org/2000/svg" version="1.1">
 <metadata>
  <rdf:RDF xmlns:dc="http://purl.org/dc/elements/1.1/" xmlns:cc="http://creativecommons.org/ns#" xmlns:rdf="http://www.w3.org/1999/02/22-rdf-syntax-ns#">
   <cc:Work>
    <dc:type rdf:resource="http://purl.org/dc/dcmitype/StillImage"/>
    <dc:date>2025-09-09T11:46:28.771744</dc:date>
    <dc:format>image/svg+xml</dc:format>
    <dc:creator>
     <cc:Agent>
      <dc:title>Matplotlib v3.10.6, https://matplotlib.org/</dc:title>
     </cc:Agent>
    </dc:creator>
   </cc:Work>
  </rdf:RDF>
 </metadata>
 <defs>
  <style type="text/css">*{stroke-linejoin: round; stroke-linecap: butt}</style>
 </defs>
 <g id="figure_1">
  <g id="patch_1">
   <path d="M 0 395.512536 
L 572.7075 395.512536 
L 572.7075 0 
L 0 0 
z
" style="fill: #ffffff"/>
  </g>
  <g id="axes_1">
   <g id="patch_2">
    <path d="M 63.3075 340.261208 
L 565.5075 340.261208 
L 565.5075 7.621208 
L 63.3075 7.621208 
z
" style="fill: #ffffff"/>
   </g>
   <g id="matplotlib.axis_1">
    <g id="xtick_1">
     <g id="line2d_1">
      <path d="M 90.440212 340.261208 
L 90.440212 7.621208 
" clip-path="url(#p7b2bdbe508)" style="fill: none; stroke: #cccccc; stroke-opacity: 0.4; stroke-width: 1.5; stroke-linecap: round"/>
     </g>
     <g id="line2d_2">
      <defs>
       <path id="mafce3f9482" d="M 0 0 
L 0 9 
" style="stroke: #262626; stroke-width: 1.875"/>
      </defs>
      <g>
       <use xlink:href="#mafce3f9482" x="90.440212" y="340.261208" style="fill: #262626; stroke: #262626; stroke-width: 1.875"/>
      </g>
     </g>
     <g id="text_1">
      <!-- −8 -->
      <g style="fill: #262626" transform="translate(81.033923 364.571599) scale(0.165 -0.165)">
       <defs>
        <path id="ArialMT-2212" d="M 3381 1997 
L 356 1997 
L 356 2522 
L 3381 2522 
L 3381 1997 
z
" transform="scale(0.015625)"/>
        <path id="ArialMT-38" d="M 1131 2484 
Q 781 2613 612 2850 
Q 444 3088 444 3419 
Q 444 3919 803 4259 
Q 1163 4600 1759 4600 
Q 2359 4600 2725 4251 
Q 3091 3903 3091 3403 
Q 3091 3084 2923 2848 
Q 2756 2613 2416 2484 
Q 2838 2347 3058 2040 
Q 3278 1734 3278 1309 
Q 3278 722 2862 322 
Q 2447 -78 1769 -78 
Q 1091 -78 675 323 
Q 259 725 259 1325 
Q 259 1772 486 2073 
Q 713 2375 1131 2484 
z
M 1019 3438 
Q 1019 3113 1228 2906 
Q 1438 2700 1772 2700 
Q 2097 2700 2305 2904 
Q 2513 3109 2513 3406 
Q 2513 3716 2298 3927 
Q 2084 4138 1766 4138 
Q 1444 4138 1231 3931 
Q 1019 3725 1019 3438 
z
M 838 1322 
Q 838 1081 952 856 
Q 1066 631 1291 507 
Q 1516 384 1775 384 
Q 2178 384 2440 643 
Q 2703 903 2703 1303 
Q 2703 1709 2433 1975 
Q 2163 2241 1756 2241 
Q 1359 2241 1098 1978 
Q 838 1716 838 1322 
z
" transform="scale(0.015625)"/>
       </defs>
       <use xlink:href="#ArialMT-2212"/>
       <use xlink:href="#ArialMT-38" transform="translate(58.398438 0)"/>
      </g>
     </g>
    </g>
    <g id="xtick_2">
     <g id="line2d_3">
      <path d="M 146.645181 340.261208 
L 146.645181 7.621208 
" clip-path="url(#p7b2bdbe508)" style="fill: none; stroke: #cccccc; stroke-opacity: 0.4; stroke-width: 1.5; stroke-linecap: round"/>
     </g>
     <g id="line2d_4">
      <g>
       <use xlink:href="#mafce3f9482" x="146.645181" y="340.261208" style="fill: #262626; stroke: #262626; stroke-width: 1.875"/>
      </g>
     </g>
     <g id="text_2">
      <!-- −6 -->
      <g style="fill: #262626" transform="translate(137.238892 364.571599) scale(0.165 -0.165)">
       <defs>
        <path id="ArialMT-36" d="M 3184 3459 
L 2625 3416 
Q 2550 3747 2413 3897 
Q 2184 4138 1850 4138 
Q 1581 4138 1378 3988 
Q 1113 3794 959 3422 
Q 806 3050 800 2363 
Q 1003 2672 1297 2822 
Q 1591 2972 1913 2972 
Q 2475 2972 2870 2558 
Q 3266 2144 3266 1488 
Q 3266 1056 3080 686 
Q 2894 316 2569 119 
Q 2244 -78 1831 -78 
Q 1128 -78 684 439 
Q 241 956 241 2144 
Q 241 3472 731 4075 
Q 1159 4600 1884 4600 
Q 2425 4600 2770 4297 
Q 3116 3994 3184 3459 
z
M 888 1484 
Q 888 1194 1011 928 
Q 1134 663 1356 523 
Q 1578 384 1822 384 
Q 2178 384 2434 671 
Q 2691 959 2691 1453 
Q 2691 1928 2437 2201 
Q 2184 2475 1800 2475 
Q 1419 2475 1153 2201 
Q 888 1928 888 1484 
z
" transform="scale(0.015625)"/>
       </defs>
       <use xlink:href="#ArialMT-2212"/>
       <use xlink:href="#ArialMT-36" transform="translate(58.398438 0)"/>
      </g>
     </g>
    </g>
    <g id="xtick_3">
     <g id="line2d_5">
      <path d="M 202.850149 340.261208 
L 202.850149 7.621208 
" clip-path="url(#p7b2bdbe508)" style="fill: none; stroke: #cccccc; stroke-opacity: 0.4; stroke-width: 1.5; stroke-linecap: round"/>
     </g>
     <g id="line2d_6">
      <g>
       <use xlink:href="#mafce3f9482" x="202.850149" y="340.261208" style="fill: #262626; stroke: #262626; stroke-width: 1.875"/>
      </g>
     </g>
     <g id="text_3">
      <!-- −4 -->
      <g style="fill: #262626" transform="translate(193.44386 364.571599) scale(0.165 -0.165)">
       <defs>
        <path id="ArialMT-34" d="M 2069 0 
L 2069 1097 
L 81 1097 
L 81 1613 
L 2172 4581 
L 2631 4581 
L 2631 1613 
L 3250 1613 
L 3250 1097 
L 2631 1097 
L 2631 0 
L 2069 0 
z
M 2069 1613 
L 2069 3678 
L 634 1613 
L 2069 1613 
z
" transform="scale(0.015625)"/>
       </defs>
       <use xlink:href="#ArialMT-2212"/>
       <use xlink:href="#ArialMT-34" transform="translate(58.398438 0)"/>
      </g>
     </g>
    </g>
    <g id="xtick_4">
     <g id="line2d_7">
      <path d="M 259.055118 340.261208 
L 259.055118 7.621208 
" clip-path="url(#p7b2bdbe508)" style="fill: none; stroke: #cccccc; stroke-opacity: 0.4; stroke-width: 1.5; stroke-linecap: round"/>
     </g>
     <g id="line2d_8">
      <g>
       <use xlink:href="#mafce3f9482" x="259.055118" y="340.261208" style="fill: #262626; stroke: #262626; stroke-width: 1.875"/>
      </g>
     </g>
     <g id="text_4">
      <!-- −2 -->
      <g style="fill: #262626" transform="translate(249.648829 364.571599) scale(0.165 -0.165)">
       <defs>
        <path id="ArialMT-32" d="M 3222 541 
L 3222 0 
L 194 0 
Q 188 203 259 391 
Q 375 700 629 1000 
Q 884 1300 1366 1694 
Q 2113 2306 2375 2664 
Q 2638 3022 2638 3341 
Q 2638 3675 2398 3904 
Q 2159 4134 1775 4134 
Q 1369 4134 1125 3890 
Q 881 3647 878 3216 
L 300 3275 
Q 359 3922 746 4261 
Q 1134 4600 1788 4600 
Q 2447 4600 2831 4234 
Q 3216 3869 3216 3328 
Q 3216 3053 3103 2787 
Q 2991 2522 2730 2228 
Q 2469 1934 1863 1422 
Q 1356 997 1212 845 
Q 1069 694 975 541 
L 3222 541 
z
" transform="scale(0.015625)"/>
       </defs>
       <use xlink:href="#ArialMT-2212"/>
       <use xlink:href="#ArialMT-32" transform="translate(58.398438 0)"/>
      </g>
     </g>
    </g>
    <g id="xtick_5">
     <g id="line2d_9">
      <path d="M 315.260086 340.261208 
L 315.260086 7.621208 
" clip-path="url(#p7b2bdbe508)" style="fill: none; stroke: #cccccc; stroke-opacity: 0.4; stroke-width: 1.5; stroke-linecap: round"/>
     </g>
     <g id="line2d_10">
      <g>
       <use xlink:href="#mafce3f9482" x="315.260086" y="340.261208" style="fill: #262626; stroke: #262626; stroke-width: 1.875"/>
      </g>
     </g>
     <g id="text_5">
      <!-- 0 -->
      <g style="fill: #262626" transform="translate(310.672313 364.571599) scale(0.165 -0.165)">
       <defs>
        <path id="ArialMT-30" d="M 266 2259 
Q 266 3072 433 3567 
Q 600 4063 929 4331 
Q 1259 4600 1759 4600 
Q 2128 4600 2406 4451 
Q 2684 4303 2865 4023 
Q 3047 3744 3150 3342 
Q 3253 2941 3253 2259 
Q 3253 1453 3087 958 
Q 2922 463 2592 192 
Q 2263 -78 1759 -78 
Q 1097 -78 719 397 
Q 266 969 266 2259 
z
M 844 2259 
Q 844 1131 1108 757 
Q 1372 384 1759 384 
Q 2147 384 2411 759 
Q 2675 1134 2675 2259 
Q 2675 3391 2411 3762 
Q 2147 4134 1753 4134 
Q 1366 4134 1134 3806 
Q 844 3388 844 2259 
z
" transform="scale(0.015625)"/>
       </defs>
       <use xlink:href="#ArialMT-30"/>
      </g>
     </g>
    </g>
    <g id="xtick_6">
     <g id="line2d_11">
      <path d="M 371.465054 340.261208 
L 371.465054 7.621208 
" clip-path="url(#p7b2bdbe508)" style="fill: none; stroke: #cccccc; stroke-opacity: 0.4; stroke-width: 1.5; stroke-linecap: round"/>
     </g>
     <g id="line2d_12">
      <g>
       <use xlink:href="#mafce3f9482" x="371.465054" y="340.261208" style="fill: #262626; stroke: #262626; stroke-width: 1.875"/>
      </g>
     </g>
     <g id="text_6">
      <!-- 2 -->
      <g style="fill: #262626" transform="translate(366.877281 364.571599) scale(0.165 -0.165)">
       <use xlink:href="#ArialMT-32"/>
      </g>
     </g>
    </g>
    <g id="xtick_7">
     <g id="line2d_13">
      <path d="M 427.670023 340.261208 
L 427.670023 7.621208 
" clip-path="url(#p7b2bdbe508)" style="fill: none; stroke: #cccccc; stroke-opacity: 0.4; stroke-width: 1.5; stroke-linecap: round"/>
     </g>
     <g id="line2d_14">
      <g>
       <use xlink:href="#mafce3f9482" x="427.670023" y="340.261208" style="fill: #262626; stroke: #262626; stroke-width: 1.875"/>
      </g>
     </g>
     <g id="text_7">
      <!-- 4 -->
      <g style="fill: #262626" transform="translate(423.082249 364.571599) scale(0.165 -0.165)">
       <use xlink:href="#ArialMT-34"/>
      </g>
     </g>
    </g>
    <g id="xtick_8">
     <g id="line2d_15">
      <path d="M 483.874991 340.261208 
L 483.874991 7.621208 
" clip-path="url(#p7b2bdbe508)" style="fill: none; stroke: #cccccc; stroke-opacity: 0.4; stroke-width: 1.5; stroke-linecap: round"/>
     </g>
     <g id="line2d_16">
      <g>
       <use xlink:href="#mafce3f9482" x="483.874991" y="340.261208" style="fill: #262626; stroke: #262626; stroke-width: 1.875"/>
      </g>
     </g>
     <g id="text_8">
      <!-- 6 -->
      <g style="fill: #262626" transform="translate(479.287218 364.571599) scale(0.165 -0.165)">
       <use xlink:href="#ArialMT-36"/>
      </g>
     </g>
    </g>
    <g id="xtick_9">
     <g id="line2d_17">
      <path d="M 540.07996 340.261208 
L 540.07996 7.621208 
" clip-path="url(#p7b2bdbe508)" style="fill: none; stroke: #cccccc; stroke-opacity: 0.4; stroke-width: 1.5; stroke-linecap: round"/>
     </g>
     <g id="line2d_18">
      <g>
       <use xlink:href="#mafce3f9482" x="540.07996" y="340.261208" style="fill: #262626; stroke: #262626; stroke-width: 1.875"/>
      </g>
     </g>
     <g id="text_9">
      <!-- 8 -->
      <g style="fill: #262626" transform="translate(535.492186 364.571599) scale(0.165 -0.165)">
       <use xlink:href="#ArialMT-38"/>
      </g>
     </g>
    </g>
    <g id="text_10">
     <!-- Value -->
     <g style="fill: #262626" transform="translate(292.05375 384.735036) scale(0.18 -0.18)">
      <defs>
       <path id="ArialMT-56" d="M 1803 0 
L 28 4581 
L 684 4581 
L 1875 1253 
Q 2019 853 2116 503 
Q 2222 878 2363 1253 
L 3600 4581 
L 4219 4581 
L 2425 0 
L 1803 0 
z
" transform="scale(0.015625)"/>
       <path id="ArialMT-61" d="M 2588 409 
Q 2275 144 1986 34 
Q 1697 -75 1366 -75 
Q 819 -75 525 192 
Q 231 459 231 875 
Q 231 1119 342 1320 
Q 453 1522 633 1644 
Q 813 1766 1038 1828 
Q 1203 1872 1538 1913 
Q 2219 1994 2541 2106 
Q 2544 2222 2544 2253 
Q 2544 2597 2384 2738 
Q 2169 2928 1744 2928 
Q 1347 2928 1158 2789 
Q 969 2650 878 2297 
L 328 2372 
Q 403 2725 575 2942 
Q 747 3159 1072 3276 
Q 1397 3394 1825 3394 
Q 2250 3394 2515 3294 
Q 2781 3194 2906 3042 
Q 3031 2891 3081 2659 
Q 3109 2516 3109 2141 
L 3109 1391 
Q 3109 606 3145 398 
Q 3181 191 3288 0 
L 2700 0 
Q 2613 175 2588 409 
z
M 2541 1666 
Q 2234 1541 1622 1453 
Q 1275 1403 1131 1340 
Q 988 1278 909 1158 
Q 831 1038 831 891 
Q 831 666 1001 516 
Q 1172 366 1500 366 
Q 1825 366 2078 508 
Q 2331 650 2450 897 
Q 2541 1088 2541 1459 
L 2541 1666 
z
" transform="scale(0.015625)"/>
       <path id="ArialMT-6c" d="M 409 0 
L 409 4581 
L 972 4581 
L 972 0 
L 409 0 
z
" transform="scale(0.015625)"/>
       <path id="ArialMT-75" d="M 2597 0 
L 2597 488 
Q 2209 -75 1544 -75 
Q 1250 -75 995 37 
Q 741 150 617 320 
Q 494 491 444 738 
Q 409 903 409 1263 
L 409 3319 
L 972 3319 
L 972 1478 
Q 972 1038 1006 884 
Q 1059 663 1231 536 
Q 1403 409 1656 409 
Q 1909 409 2131 539 
Q 2353 669 2445 892 
Q 2538 1116 2538 1541 
L 2538 3319 
L 3100 3319 
L 3100 0 
L 2597 0 
z
" transform="scale(0.015625)"/>
       <path id="ArialMT-65" d="M 2694 1069 
L 3275 997 
Q 3138 488 2766 206 
Q 2394 -75 1816 -75 
Q 1088 -75 661 373 
Q 234 822 234 1631 
Q 234 2469 665 2931 
Q 1097 3394 1784 3394 
Q 2450 3394 2872 2941 
Q 3294 2488 3294 1666 
Q 3294 1616 3291 1516 
L 816 1516 
Q 847 969 1125 678 
Q 1403 388 1819 388 
Q 2128 388 2347 550 
Q 2566 713 2694 1069 
z
M 847 1978 
L 2700 1978 
Q 2663 2397 2488 2606 
Q 2219 2931 1791 2931 
Q 1403 2931 1139 2672 
Q 875 2413 847 1978 
z
" transform="scale(0.015625)"/>
      </defs>
      <use xlink:href="#ArialMT-56"/>
      <use xlink:href="#ArialMT-61" transform="translate(59.324219 0)"/>
      <use xlink:href="#ArialMT-6c" transform="translate(114.939453 0)"/>
      <use xlink:href="#ArialMT-75" transform="translate(137.15625 0)"/>
      <use xlink:href="#ArialMT-65" transform="translate(192.771484 0)"/>
     </g>
    </g>
   </g>
   <g id="matplotlib.axis_2">
    <g id="ytick_1">
     <g id="line2d_19">
      <path d="M 63.3075 340.261208 
L 565.5075 340.261208 
" clip-path="url(#p7b2bdbe508)" style="fill: none; stroke: #cccccc; stroke-opacity: 0.4; stroke-width: 1.5; stroke-linecap: round"/>
     </g>
     <g id="line2d_20">
      <defs>
       <path id="md75efef1b5" d="M 0 0 
L -9 0 
" style="stroke: #262626; stroke-width: 1.875"/>
      </defs>
      <g>
       <use xlink:href="#md75efef1b5" x="63.3075" y="340.261208" style="fill: #262626; stroke: #262626; stroke-width: 1.875"/>
      </g>
     </g>
     <g id="text_11">
      <!-- 0.0 -->
      <g style="fill: #262626" transform="translate(27.8725 346.166404) scale(0.165 -0.165)">
       <defs>
        <path id="ArialMT-2e" d="M 581 0 
L 581 641 
L 1222 641 
L 1222 0 
L 581 0 
z
" transform="scale(0.015625)"/>
       </defs>
       <use xlink:href="#ArialMT-30"/>
       <use xlink:href="#ArialMT-2e" transform="translate(55.615234 0)"/>
       <use xlink:href="#ArialMT-30" transform="translate(83.398438 0)"/>
      </g>
     </g>
    </g>
    <g id="ytick_2">
     <g id="line2d_21">
      <path d="M 63.3075 274.830006 
L 565.5075 274.830006 
" clip-path="url(#p7b2bdbe508)" style="fill: none; stroke: #cccccc; stroke-opacity: 0.4; stroke-width: 1.5; stroke-linecap: round"/>
     </g>
     <g id="line2d_22">
      <g>
       <use xlink:href="#md75efef1b5" x="63.3075" y="274.830006" style="fill: #262626; stroke: #262626; stroke-width: 1.875"/>
      </g>
     </g>
     <g id="text_12">
      <!-- 0.1 -->
      <g style="fill: #262626" transform="translate(27.8725 280.735201) scale(0.165 -0.165)">
       <defs>
        <path id="ArialMT-31" d="M 2384 0 
L 1822 0 
L 1822 3584 
Q 1619 3391 1289 3197 
Q 959 3003 697 2906 
L 697 3450 
Q 1169 3672 1522 3987 
Q 1875 4303 2022 4600 
L 2384 4600 
L 2384 0 
z
" transform="scale(0.015625)"/>
       </defs>
       <use xlink:href="#ArialMT-30"/>
       <use xlink:href="#ArialMT-2e" transform="translate(55.615234 0)"/>
       <use xlink:href="#ArialMT-31" transform="translate(83.398438 0)"/>
      </g>
     </g>
    </g>
    <g id="ytick_3">
     <g id="line2d_23">
      <path d="M 63.3075 209.398803 
L 565.5075 209.398803 
" clip-path="url(#p7b2bdbe508)" style="fill: none; stroke: #cccccc; stroke-opacity: 0.4; stroke-width: 1.5; stroke-linecap: round"/>
     </g>
     <g id="line2d_24">
      <g>
       <use xlink:href="#md75efef1b5" x="63.3075" y="209.398803" style="fill: #262626; stroke: #262626; stroke-width: 1.875"/>
      </g>
     </g>
     <g id="text_13">
      <!-- 0.2 -->
      <g style="fill: #262626" transform="translate(27.8725 215.303998) scale(0.165 -0.165)">
       <use xlink:href="#ArialMT-30"/>
       <use xlink:href="#ArialMT-2e" transform="translate(55.615234 0)"/>
       <use xlink:href="#ArialMT-32" transform="translate(83.398438 0)"/>
      </g>
     </g>
    </g>
    <g id="ytick_4">
     <g id="line2d_25">
      <path d="M 63.3075 143.967601 
L 565.5075 143.967601 
" clip-path="url(#p7b2bdbe508)" style="fill: none; stroke: #cccccc; stroke-opacity: 0.4; stroke-width: 1.5; stroke-linecap: round"/>
     </g>
     <g id="line2d_26">
      <g>
       <use xlink:href="#md75efef1b5" x="63.3075" y="143.967601" style="fill: #262626; stroke: #262626; stroke-width: 1.875"/>
      </g>
     </g>
     <g id="text_14">
      <!-- 0.3 -->
      <g style="fill: #262626" transform="translate(27.8725 149.872796) scale(0.165 -0.165)">
       <defs>
        <path id="ArialMT-33" d="M 269 1209 
L 831 1284 
Q 928 806 1161 595 
Q 1394 384 1728 384 
Q 2125 384 2398 659 
Q 2672 934 2672 1341 
Q 2672 1728 2419 1979 
Q 2166 2231 1775 2231 
Q 1616 2231 1378 2169 
L 1441 2663 
Q 1497 2656 1531 2656 
Q 1891 2656 2178 2843 
Q 2466 3031 2466 3422 
Q 2466 3731 2256 3934 
Q 2047 4138 1716 4138 
Q 1388 4138 1169 3931 
Q 950 3725 888 3313 
L 325 3413 
Q 428 3978 793 4289 
Q 1159 4600 1703 4600 
Q 2078 4600 2393 4439 
Q 2709 4278 2876 4000 
Q 3044 3722 3044 3409 
Q 3044 3113 2884 2869 
Q 2725 2625 2413 2481 
Q 2819 2388 3044 2092 
Q 3269 1797 3269 1353 
Q 3269 753 2831 336 
Q 2394 -81 1725 -81 
Q 1122 -81 723 278 
Q 325 638 269 1209 
z
" transform="scale(0.015625)"/>
       </defs>
       <use xlink:href="#ArialMT-30"/>
       <use xlink:href="#ArialMT-2e" transform="translate(55.615234 0)"/>
       <use xlink:href="#ArialMT-33" transform="translate(83.398438 0)"/>
      </g>
     </g>
    </g>
    <g id="ytick_5">
     <g id="line2d_27">
      <path d="M 63.3075 78.536398 
L 565.5075 78.536398 
" clip-path="url(#p7b2bdbe508)" style="fill: none; stroke: #cccccc; stroke-opacity: 0.4; stroke-width: 1.5; stroke-linecap: round"/>
     </g>
     <g id="line2d_28">
      <g>
       <use xlink:href="#md75efef1b5" x="63.3075" y="78.536398" style="fill: #262626; stroke: #262626; stroke-width: 1.875"/>
      </g>
     </g>
     <g id="text_15">
      <!-- 0.4 -->
      <g style="fill: #262626" transform="translate(27.8725 84.441593) scale(0.165 -0.165)">
       <use xlink:href="#ArialMT-30"/>
       <use xlink:href="#ArialMT-2e" transform="translate(55.615234 0)"/>
       <use xlink:href="#ArialMT-34" transform="translate(83.398438 0)"/>
      </g>
     </g>
    </g>
    <g id="ytick_6">
     <g id="line2d_29">
      <path d="M 63.3075 13.105195 
L 565.5075 13.105195 
" clip-path="url(#p7b2bdbe508)" style="fill: none; stroke: #cccccc; stroke-opacity: 0.4; stroke-width: 1.5; stroke-linecap: round"/>
     </g>
     <g id="line2d_30">
      <g>
       <use xlink:href="#md75efef1b5" x="63.3075" y="13.105195" style="fill: #262626; stroke: #262626; stroke-width: 1.875"/>
      </g>
     </g>
     <g id="text_16">
      <!-- 0.5 -->
      <g style="fill: #262626" transform="translate(27.8725 19.010391) scale(0.165 -0.165)">
       <defs>
        <path id="ArialMT-35" d="M 266 1200 
L 856 1250 
Q 922 819 1161 601 
Q 1400 384 1738 384 
Q 2144 384 2425 690 
Q 2706 997 2706 1503 
Q 2706 1984 2436 2262 
Q 2166 2541 1728 2541 
Q 1456 2541 1237 2417 
Q 1019 2294 894 2097 
L 366 2166 
L 809 4519 
L 3088 4519 
L 3088 3981 
L 1259 3981 
L 1013 2750 
Q 1425 3038 1878 3038 
Q 2478 3038 2890 2622 
Q 3303 2206 3303 1553 
Q 3303 931 2941 478 
Q 2500 -78 1738 -78 
Q 1113 -78 717 272 
Q 322 622 266 1200 
z
" transform="scale(0.015625)"/>
       </defs>
       <use xlink:href="#ArialMT-30"/>
       <use xlink:href="#ArialMT-2e" transform="translate(55.615234 0)"/>
       <use xlink:href="#ArialMT-35" transform="translate(83.398438 0)"/>
      </g>
     </g>
    </g>
    <g id="text_17">
     <!-- Density -->
     <g style="fill: #262626" transform="translate(20.084062 203.950583) rotate(-90) scale(0.18 -0.18)">
      <defs>
       <path id="ArialMT-44" d="M 494 0 
L 494 4581 
L 2072 4581 
Q 2606 4581 2888 4516 
Q 3281 4425 3559 4188 
Q 3922 3881 4101 3404 
Q 4281 2928 4281 2316 
Q 4281 1794 4159 1391 
Q 4038 988 3847 723 
Q 3656 459 3429 307 
Q 3203 156 2883 78 
Q 2563 0 2147 0 
L 494 0 
z
M 1100 541 
L 2078 541 
Q 2531 541 2789 625 
Q 3047 709 3200 863 
Q 3416 1078 3536 1442 
Q 3656 1806 3656 2325 
Q 3656 3044 3420 3430 
Q 3184 3816 2847 3947 
Q 2603 4041 2063 4041 
L 1100 4041 
L 1100 541 
z
" transform="scale(0.015625)"/>
       <path id="ArialMT-6e" d="M 422 0 
L 422 3319 
L 928 3319 
L 928 2847 
Q 1294 3394 1984 3394 
Q 2284 3394 2536 3286 
Q 2788 3178 2913 3003 
Q 3038 2828 3088 2588 
Q 3119 2431 3119 2041 
L 3119 0 
L 2556 0 
L 2556 2019 
Q 2556 2363 2490 2533 
Q 2425 2703 2258 2804 
Q 2091 2906 1866 2906 
Q 1506 2906 1245 2678 
Q 984 2450 984 1813 
L 984 0 
L 422 0 
z
" transform="scale(0.015625)"/>
       <path id="ArialMT-73" d="M 197 991 
L 753 1078 
Q 800 744 1014 566 
Q 1228 388 1613 388 
Q 2000 388 2187 545 
Q 2375 703 2375 916 
Q 2375 1106 2209 1216 
Q 2094 1291 1634 1406 
Q 1016 1563 777 1677 
Q 538 1791 414 1992 
Q 291 2194 291 2438 
Q 291 2659 392 2848 
Q 494 3038 669 3163 
Q 800 3259 1026 3326 
Q 1253 3394 1513 3394 
Q 1903 3394 2198 3281 
Q 2494 3169 2634 2976 
Q 2775 2784 2828 2463 
L 2278 2388 
Q 2241 2644 2061 2787 
Q 1881 2931 1553 2931 
Q 1166 2931 1000 2803 
Q 834 2675 834 2503 
Q 834 2394 903 2306 
Q 972 2216 1119 2156 
Q 1203 2125 1616 2013 
Q 2213 1853 2448 1751 
Q 2684 1650 2818 1456 
Q 2953 1263 2953 975 
Q 2953 694 2789 445 
Q 2625 197 2315 61 
Q 2006 -75 1616 -75 
Q 969 -75 630 194 
Q 291 463 197 991 
z
" transform="scale(0.015625)"/>
       <path id="ArialMT-69" d="M 425 3934 
L 425 4581 
L 988 4581 
L 988 3934 
L 425 3934 
z
M 425 0 
L 425 3319 
L 988 3319 
L 988 0 
L 425 0 
z
" transform="scale(0.015625)"/>
       <path id="ArialMT-74" d="M 1650 503 
L 1731 6 
Q 1494 -44 1306 -44 
Q 1000 -44 831 53 
Q 663 150 594 308 
Q 525 466 525 972 
L 525 2881 
L 113 2881 
L 113 3319 
L 525 3319 
L 525 4141 
L 1084 4478 
L 1084 3319 
L 1650 3319 
L 1650 2881 
L 1084 2881 
L 1084 941 
Q 1084 700 1114 631 
Q 1144 563 1211 522 
Q 1278 481 1403 481 
Q 1497 481 1650 503 
z
" transform="scale(0.015625)"/>
       <path id="ArialMT-79" d="M 397 -1278 
L 334 -750 
Q 519 -800 656 -800 
Q 844 -800 956 -737 
Q 1069 -675 1141 -563 
Q 1194 -478 1313 -144 
Q 1328 -97 1363 -6 
L 103 3319 
L 709 3319 
L 1400 1397 
Q 1534 1031 1641 628 
Q 1738 1016 1872 1384 
L 2581 3319 
L 3144 3319 
L 1881 -56 
Q 1678 -603 1566 -809 
Q 1416 -1088 1222 -1217 
Q 1028 -1347 759 -1347 
Q 597 -1347 397 -1278 
z
" transform="scale(0.015625)"/>
      </defs>
      <use xlink:href="#ArialMT-44"/>
      <use xlink:href="#ArialMT-65" transform="translate(72.216797 0)"/>
      <use xlink:href="#ArialMT-6e" transform="translate(127.832031 0)"/>
      <use xlink:href="#ArialMT-73" transform="translate(183.447266 0)"/>
      <use xlink:href="#ArialMT-69" transform="translate(233.447266 0)"/>
      <use xlink:href="#ArialMT-74" transform="translate(255.664062 0)"/>
      <use xlink:href="#ArialMT-79" transform="translate(283.447266 0)"/>
     </g>
    </g>
   </g>
   <g id="FillBetweenPolyCollection_1">
    <defs>
     <path id="m915ec6f9d1" d="M 86.134773 -55.265044 
L 86.134773 -55.251328 
L 87.122585 -55.251328 
L 88.110398 -55.251328 
L 89.09821 -55.251328 
L 90.086022 -55.251328 
L 91.073835 -55.251328 
L 92.061647 -55.251328 
L 93.04946 -55.251328 
L 94.037272 -55.251328 
L 95.025085 -55.251328 
L 96.012897 -55.251328 
L 97.00071 -55.251328 
L 97.988522 -55.251328 
L 98.976334 -55.251328 
L 99.964147 -55.251328 
L 100.951959 -55.251328 
L 101.939772 -55.251328 
L 102.927584 -55.251328 
L 103.915397 -55.251328 
L 104.903209 -55.251328 
L 105.891022 -55.251328 
L 106.878834 -55.251328 
L 107.866646 -55.251328 
L 108.854459 -55.251328 
L 109.842271 -55.251328 
L 110.830084 -55.251328 
L 111.817896 -55.251328 
L 112.805709 -55.251328 
L 113.793521 -55.251328 
L 114.781333 -55.251328 
L 115.769146 -55.251328 
L 116.756958 -55.251328 
L 117.744771 -55.251328 
L 118.732583 -55.251328 
L 119.720396 -55.251328 
L 120.708208 -55.251328 
L 121.696021 -55.251328 
L 122.683833 -55.251328 
L 123.671645 -55.251328 
L 124.659458 -55.251328 
L 125.64727 -55.251328 
L 126.635083 -55.251328 
L 127.622895 -55.251328 
L 128.610708 -55.251328 
L 129.59852 -55.251328 
L 130.586332 -55.251328 
L 131.574145 -55.251328 
L 132.561957 -55.251328 
L 133.54977 -55.251328 
L 134.537582 -55.251328 
L 135.525395 -55.251328 
L 136.513207 -55.251328 
L 137.50102 -55.251328 
L 138.488832 -55.251328 
L 139.476644 -55.251328 
L 140.464457 -55.251328 
L 141.452269 -55.251328 
L 142.440082 -55.251328 
L 143.427894 -55.251328 
L 144.415707 -55.251328 
L 145.403519 -55.251328 
L 146.391332 -55.251328 
L 147.379144 -55.251328 
L 148.366956 -55.251328 
L 149.354769 -55.251328 
L 150.342581 -55.251328 
L 151.330394 -55.251328 
L 152.318206 -55.251328 
L 153.306019 -55.251328 
L 154.293831 -55.251328 
L 155.281643 -55.251328 
L 156.269456 -55.251328 
L 157.257268 -55.251328 
L 158.245081 -55.251328 
L 159.232893 -55.251328 
L 160.220706 -55.251328 
L 161.208518 -55.251328 
L 162.196331 -55.251328 
L 163.184143 -55.251328 
L 164.171955 -55.251328 
L 165.159768 -55.251328 
L 166.14758 -55.251328 
L 167.135393 -55.251328 
L 168.123205 -55.251328 
L 169.111018 -55.251328 
L 170.09883 -55.251328 
L 171.086643 -55.251328 
L 172.074455 -55.251328 
L 173.062267 -55.251328 
L 174.05008 -55.251328 
L 175.037892 -55.251328 
L 176.025705 -55.251328 
L 177.013517 -55.251328 
L 178.00133 -55.251328 
L 178.989142 -55.251328 
L 179.976954 -55.251328 
L 180.964767 -55.251328 
L 181.952579 -55.251328 
L 182.940392 -55.251328 
L 183.928204 -55.251328 
L 184.916017 -55.251328 
L 185.903829 -55.251328 
L 186.891642 -55.251328 
L 187.879454 -55.251328 
L 188.867266 -55.251328 
L 189.855079 -55.251328 
L 190.842891 -55.251328 
L 191.830704 -55.251328 
L 192.818516 -55.251328 
L 193.806329 -55.251328 
L 194.794141 -55.251328 
L 195.781953 -55.251328 
L 196.769766 -55.251328 
L 197.757578 -55.251328 
L 198.745391 -55.251328 
L 199.733203 -55.251328 
L 200.721016 -55.251328 
L 201.708828 -55.251328 
L 202.696641 -55.251328 
L 203.684453 -55.251328 
L 204.672265 -55.251328 
L 205.660078 -55.251328 
L 206.64789 -55.251328 
L 207.635703 -55.251328 
L 208.623515 -55.251328 
L 209.611328 -55.251328 
L 210.59914 -55.251328 
L 211.586953 -55.251328 
L 212.574765 -55.251328 
L 213.562577 -55.251328 
L 214.55039 -55.251328 
L 215.538202 -55.251328 
L 216.526015 -55.251328 
L 217.513827 -55.251328 
L 218.50164 -55.251328 
L 219.489452 -55.251328 
L 220.477264 -55.251328 
L 221.465077 -55.251328 
L 222.452889 -55.251328 
L 223.440702 -55.251328 
L 224.428514 -55.251328 
L 225.416327 -55.251328 
L 226.404139 -55.251328 
L 227.391952 -55.251328 
L 228.379764 -55.251328 
L 229.367576 -55.251328 
L 230.355389 -55.251328 
L 231.343201 -55.251328 
L 232.331014 -55.251328 
L 233.318826 -55.251328 
L 234.306639 -55.251328 
L 235.294451 -55.251328 
L 236.282264 -55.251328 
L 237.270076 -55.251328 
L 238.257888 -55.251328 
L 239.245701 -55.251328 
L 240.233513 -55.251328 
L 241.221326 -55.251328 
L 242.209138 -55.251328 
L 243.196951 -55.251328 
L 244.184763 -55.251328 
L 245.172575 -55.251328 
L 246.160388 -55.251328 
L 247.1482 -55.251328 
L 248.136013 -55.251328 
L 249.123825 -55.251328 
L 250.111638 -55.251328 
L 251.09945 -55.251328 
L 252.087263 -55.251328 
L 253.075075 -55.251328 
L 254.062887 -55.251328 
L 255.0507 -55.251328 
L 256.038512 -55.251328 
L 257.026325 -55.251328 
L 258.014137 -55.251328 
L 259.00195 -55.251328 
L 259.989762 -55.251328 
L 260.977574 -55.251328 
L 261.965387 -55.251328 
L 262.953199 -55.251328 
L 263.941012 -55.251328 
L 264.928824 -55.251328 
L 265.916637 -55.251328 
L 266.904449 -55.251328 
L 267.892262 -55.251328 
L 268.880074 -55.251328 
L 269.867886 -55.251328 
L 270.855699 -55.251328 
L 271.843511 -55.251328 
L 272.831324 -55.251328 
L 273.819136 -55.251328 
L 274.806949 -55.251328 
L 275.794761 -55.251328 
L 276.782574 -55.251328 
L 277.770386 -55.251328 
L 278.758198 -55.251328 
L 279.746011 -55.251328 
L 280.733823 -55.251328 
L 281.721636 -55.251328 
L 282.709448 -55.251328 
L 282.709448 -55.265081 
L 282.709448 -55.265081 
L 281.721636 -55.273683 
L 280.733823 -55.28669 
L 279.746011 -55.305771 
L 278.758198 -55.33292 
L 277.770386 -55.370391 
L 276.782574 -55.420553 
L 275.794761 -55.485697 
L 274.806949 -55.567802 
L 273.819136 -55.668302 
L 272.831324 -55.787927 
L 271.843511 -55.926662 
L 270.855699 -56.083901 
L 269.867886 -56.258804 
L 268.880074 -56.450818 
L 267.892262 -56.66028 
L 266.904449 -56.888941 
L 265.916637 -57.140238 
L 264.928824 -57.419134 
L 263.941012 -57.731468 
L 262.953199 -58.082796 
L 261.965387 -58.476937 
L 260.977574 -58.914487 
L 259.989762 -59.391712 
L 259.00195 -59.900168 
L 258.014137 -60.427341 
L 257.026325 -60.958367 
L 256.038512 -61.478691 
L 255.0507 -61.977258 
L 254.062887 -62.449711 
L 253.075075 -62.900953 
L 252.087263 -63.346581 
L 251.09945 -63.812818 
L 250.111638 -64.334883 
L 249.123825 -64.953996 
L 248.136013 -65.71347 
L 247.1482 -66.654498 
L 246.160388 -67.81232 
L 245.172575 -69.213396 
L 244.184763 -70.874047 
L 243.196951 -72.800817 
L 242.209138 -74.992479 
L 241.221326 -77.443319 
L 240.233513 -80.147059 
L 239.245701 -83.100561 
L 238.257888 -86.306477 
L 237.270076 -89.774125 
L 236.282264 -93.518249 
L 235.294451 -97.555803 
L 234.306639 -101.901396 
L 233.318826 -106.562475 
L 232.331014 -111.535429 
L 231.343201 -116.80374 
L 230.355389 -122.338771 
L 229.367576 -128.103201 
L 228.379764 -134.056398 
L 227.391952 -140.160483 
L 226.404139 -146.385653 
L 225.416327 -152.713433 
L 224.428514 -159.137098 
L 223.440702 -165.659158 
L 222.452889 -172.286563 
L 221.465077 -179.024834 
L 220.477264 -185.872539 
L 219.489452 -192.817454 
L 218.50164 -199.835274 
L 217.513827 -206.891209 
L 216.526015 -213.944145 
L 215.538202 -220.952602 
L 214.55039 -227.881462 
L 213.562577 -234.708353 
L 212.574765 -241.428734 
L 211.586953 -248.058886 
L 210.59914 -254.636258 
L 209.611328 -261.216823 
L 208.623515 -267.86934 
L 207.635703 -274.66669 
L 206.64789 -281.674877 
L 205.660078 -288.940732 
L 204.672265 -296.479909 
L 203.684453 -304.267097 
L 202.696641 -312.230518 
L 201.708828 -320.252404 
L 200.721016 -328.17635 
L 199.733203 -335.82123 
L 198.745391 -342.999986 
L 197.757578 -349.540406 
L 196.769766 -355.304268 
L 195.781953 -360.201268 
L 194.794141 -364.194943 
L 193.806329 -367.299336 
L 192.818516 -369.566951 
L 191.830704 -371.070384 
L 190.842891 -371.881341 
L 189.855079 -372.051328 
L 188.867266 -371.598029 
L 187.879454 -370.500233 
L 186.891642 -368.702531 
L 185.903829 -366.129039 
L 184.916017 -362.703617 
L 183.928204 -358.372727 
L 182.940392 -353.126452 
L 181.952579 -347.013438 
L 180.964767 -340.146538 
L 179.976954 -332.697676 
L 178.989142 -324.882394 
L 178.00133 -316.93655 
L 177.013517 -309.08908 
L 176.025705 -301.535465 
L 175.037892 -294.416287 
L 174.05008 -287.804207 
L 173.062267 -281.700988 
L 172.074455 -276.044299 
L 171.086643 -270.722416 
L 170.09883 -265.593775 
L 169.111018 -260.508005 
L 168.123205 -255.325302 
L 167.135393 -249.931816 
L 166.14758 -244.249703 
L 165.159768 -238.241455 
L 164.171955 -231.908932 
L 163.184143 -225.288049 
L 162.196331 -218.440377 
L 161.208518 -211.443126 
L 160.220706 -204.378908 
L 159.232893 -197.326665 
L 158.245081 -190.354796 
L 157.257268 -183.517172 
L 156.269456 -176.852153 
L 155.281643 -170.38418 
L 154.293831 -164.127054 
L 153.306019 -158.087807 
L 152.318206 -152.270107 
L 151.330394 -146.676518 
L 150.342581 -141.309398 
L 149.354769 -136.170724 
L 148.366956 -131.261452 
L 147.379144 -126.581058 
L 146.391332 -122.127703 
L 145.403519 -117.899095 
L 144.415707 -113.893709 
L 143.427894 -110.111812 
L 142.440082 -106.555706 
L 141.452269 -103.228814 
L 140.464457 -100.133644 
L 139.476644 -97.269026 
L 138.488832 -94.627347 
L 137.50102 -92.192556 
L 136.513207 -89.93962 
L 135.525395 -87.835778 
L 134.537582 -85.84353 
L 133.54977 -83.924933 
L 132.561957 -82.046456 
L 131.574145 -80.183516 
L 130.586332 -78.323865 
L 129.59852 -76.46918 
L 128.610708 -74.63451 
L 127.622895 -72.845638 
L 126.635083 -71.134735 
L 125.64727 -69.535043 
L 124.659458 -68.075443 
L 123.671645 -66.775836 
L 122.683833 -65.644097 
L 121.696021 -64.675085 
L 120.708208 -63.851815 
L 119.720396 -63.148507 
L 118.732583 -62.534869 
L 117.744771 -61.980801 
L 116.756958 -61.46065 
L 115.769146 -60.956272 
L 114.781333 -60.458479 
L 113.793521 -59.966737 
L 112.805709 -59.487379 
L 111.817896 -59.030827 
L 110.830084 -58.608461 
L 109.842271 -58.229781 
L 108.854459 -57.900359 
L 107.866646 -57.62085 
L 106.878834 -57.387124 
L 105.891022 -57.191303 
L 104.903209 -57.023387 
L 103.915397 -56.87306 
L 102.927584 -56.731307 
L 101.939772 -56.591558 
L 100.951959 -56.450243 
L 99.964147 -56.306728 
L 98.976334 -56.162779 
L 97.988522 -56.02173 
L 97.00071 -55.887551 
L 96.012897 -55.764018 
L 95.025085 -55.654099 
L 94.037272 -55.559601 
L 93.04946 -55.481094 
L 92.061647 -55.418042 
L 91.073835 -55.369059 
L 90.086022 -55.332234 
L 89.09821 -55.305427 
L 88.110398 -55.286523 
L 87.122585 -55.273604 
L 86.134773 -55.265044 
z
" style="stroke: #51127c; stroke-width: 1.5"/>
    </defs>
    <g clip-path="url(#p7b2bdbe508)">
     <use xlink:href="#m915ec6f9d1" x="0" y="395.512536" style="fill: #51127c; fill-opacity: 0.25; stroke: #51127c; stroke-width: 1.5"/>
    </g>
   </g>
   <g id="FillBetweenPolyCollection_2">
    <defs>
     <path id="m707520145e" d="M 208.275297 -55.265567 
L 208.275297 -55.251328 
L 209.311684 -55.251328 
L 210.34807 -55.251328 
L 211.384457 -55.251328 
L 212.420844 -55.251328 
L 213.45723 -55.251328 
L 214.493617 -55.251328 
L 215.530003 -55.251328 
L 216.56639 -55.251328 
L 217.602777 -55.251328 
L 218.639163 -55.251328 
L 219.67555 -55.251328 
L 220.711936 -55.251328 
L 221.748323 -55.251328 
L 222.78471 -55.251328 
L 223.821096 -55.251328 
L 224.857483 -55.251328 
L 225.893869 -55.251328 
L 226.930256 -55.251328 
L 227.966642 -55.251328 
L 229.003029 -55.251328 
L 230.039416 -55.251328 
L 231.075802 -55.251328 
L 232.112189 -55.251328 
L 233.148575 -55.251328 
L 234.184962 -55.251328 
L 235.221349 -55.251328 
L 236.257735 -55.251328 
L 237.294122 -55.251328 
L 238.330508 -55.251328 
L 239.366895 -55.251328 
L 240.403282 -55.251328 
L 241.439668 -55.251328 
L 242.476055 -55.251328 
L 243.512441 -55.251328 
L 244.548828 -55.251328 
L 245.585215 -55.251328 
L 246.621601 -55.251328 
L 247.657988 -55.251328 
L 248.694374 -55.251328 
L 249.730761 -55.251328 
L 250.767147 -55.251328 
L 251.803534 -55.251328 
L 252.839921 -55.251328 
L 253.876307 -55.251328 
L 254.912694 -55.251328 
L 255.94908 -55.251328 
L 256.985467 -55.251328 
L 258.021854 -55.251328 
L 259.05824 -55.251328 
L 260.094627 -55.251328 
L 261.131013 -55.251328 
L 262.1674 -55.251328 
L 263.203787 -55.251328 
L 264.240173 -55.251328 
L 265.27656 -55.251328 
L 266.312946 -55.251328 
L 267.349333 -55.251328 
L 268.38572 -55.251328 
L 269.422106 -55.251328 
L 270.458493 -55.251328 
L 271.494879 -55.251328 
L 272.531266 -55.251328 
L 273.567652 -55.251328 
L 274.604039 -55.251328 
L 275.640426 -55.251328 
L 276.676812 -55.251328 
L 277.713199 -55.251328 
L 278.749585 -55.251328 
L 279.785972 -55.251328 
L 280.822359 -55.251328 
L 281.858745 -55.251328 
L 282.895132 -55.251328 
L 283.931518 -55.251328 
L 284.967905 -55.251328 
L 286.004292 -55.251328 
L 287.040678 -55.251328 
L 288.077065 -55.251328 
L 289.113451 -55.251328 
L 290.149838 -55.251328 
L 291.186225 -55.251328 
L 292.222611 -55.251328 
L 293.258998 -55.251328 
L 294.295384 -55.251328 
L 295.331771 -55.251328 
L 296.368157 -55.251328 
L 297.404544 -55.251328 
L 298.440931 -55.251328 
L 299.477317 -55.251328 
L 300.513704 -55.251328 
L 301.55009 -55.251328 
L 302.586477 -55.251328 
L 303.622864 -55.251328 
L 304.65925 -55.251328 
L 305.695637 -55.251328 
L 306.732023 -55.251328 
L 307.76841 -55.251328 
L 308.804797 -55.251328 
L 309.841183 -55.251328 
L 310.87757 -55.251328 
L 311.913956 -55.251328 
L 312.950343 -55.251328 
L 313.986729 -55.251328 
L 315.023116 -55.251328 
L 316.059503 -55.251328 
L 317.095889 -55.251328 
L 318.132276 -55.251328 
L 319.168662 -55.251328 
L 320.205049 -55.251328 
L 321.241436 -55.251328 
L 322.277822 -55.251328 
L 323.314209 -55.251328 
L 324.350595 -55.251328 
L 325.386982 -55.251328 
L 326.423369 -55.251328 
L 327.459755 -55.251328 
L 328.496142 -55.251328 
L 329.532528 -55.251328 
L 330.568915 -55.251328 
L 331.605302 -55.251328 
L 332.641688 -55.251328 
L 333.678075 -55.251328 
L 334.714461 -55.251328 
L 335.750848 -55.251328 
L 336.787234 -55.251328 
L 337.823621 -55.251328 
L 338.860008 -55.251328 
L 339.896394 -55.251328 
L 340.932781 -55.251328 
L 341.969167 -55.251328 
L 343.005554 -55.251328 
L 344.041941 -55.251328 
L 345.078327 -55.251328 
L 346.114714 -55.251328 
L 347.1511 -55.251328 
L 348.187487 -55.251328 
L 349.223874 -55.251328 
L 350.26026 -55.251328 
L 351.296647 -55.251328 
L 352.333033 -55.251328 
L 353.36942 -55.251328 
L 354.405807 -55.251328 
L 355.442193 -55.251328 
L 356.47858 -55.251328 
L 357.514966 -55.251328 
L 358.551353 -55.251328 
L 359.587739 -55.251328 
L 360.624126 -55.251328 
L 361.660513 -55.251328 
L 362.696899 -55.251328 
L 363.733286 -55.251328 
L 364.769672 -55.251328 
L 365.806059 -55.251328 
L 366.842446 -55.251328 
L 367.878832 -55.251328 
L 368.915219 -55.251328 
L 369.951605 -55.251328 
L 370.987992 -55.251328 
L 372.024379 -55.251328 
L 373.060765 -55.251328 
L 374.097152 -55.251328 
L 375.133538 -55.251328 
L 376.169925 -55.251328 
L 377.206312 -55.251328 
L 378.242698 -55.251328 
L 379.279085 -55.251328 
L 380.315471 -55.251328 
L 381.351858 -55.251328 
L 382.388244 -55.251328 
L 383.424631 -55.251328 
L 384.461018 -55.251328 
L 385.497404 -55.251328 
L 386.533791 -55.251328 
L 387.570177 -55.251328 
L 388.606564 -55.251328 
L 389.642951 -55.251328 
L 390.679337 -55.251328 
L 391.715724 -55.251328 
L 392.75211 -55.251328 
L 393.788497 -55.251328 
L 394.824884 -55.251328 
L 395.86127 -55.251328 
L 396.897657 -55.251328 
L 397.934043 -55.251328 
L 398.97043 -55.251328 
L 400.006816 -55.251328 
L 401.043203 -55.251328 
L 402.07959 -55.251328 
L 403.115976 -55.251328 
L 404.152363 -55.251328 
L 405.188749 -55.251328 
L 406.225136 -55.251328 
L 407.261523 -55.251328 
L 408.297909 -55.251328 
L 409.334296 -55.251328 
L 410.370682 -55.251328 
L 411.407069 -55.251328 
L 412.443456 -55.251328 
L 413.479842 -55.251328 
L 414.516229 -55.251328 
L 414.516229 -55.265397 
L 414.516229 -55.265397 
L 413.479842 -55.273634 
L 412.443456 -55.286015 
L 411.407069 -55.30425 
L 410.370682 -55.330576 
L 409.334296 -55.367846 
L 408.297909 -55.419607 
L 407.261523 -55.490157 
L 406.225136 -55.58457 
L 405.188749 -55.708677 
L 404.152363 -55.869001 
L 403.115976 -56.072623 
L 402.07959 -56.326991 
L 401.043203 -56.639665 
L 400.006816 -57.017994 
L 398.97043 -57.468763 
L 397.934043 -57.997794 
L 396.897657 -58.609565 
L 395.86127 -59.306856 
L 394.824884 -60.090482 
L 393.788497 -60.959155 
L 392.75211 -61.909514 
L 391.715724 -62.936359 
L 390.679337 -64.033084 
L 389.642951 -65.192315 
L 388.606564 -66.406663 
L 387.570177 -67.669547 
L 386.533791 -68.975952 
L 385.497404 -70.32304 
L 384.461018 -71.710503 
L 383.424631 -73.140622 
L 382.388244 -74.618006 
L 381.351858 -76.149095 
L 380.315471 -77.741487 
L 379.279085 -79.403265 
L 378.242698 -81.142405 
L 377.206312 -82.966393 
L 376.169925 -84.882066 
L 375.133538 -86.895642 
L 374.097152 -89.012847 
L 373.060765 -91.238995 
L 372.024379 -93.57888 
L 370.987992 -96.036414 
L 369.951605 -98.613987 
L 368.915219 -101.311668 
L 367.878832 -104.126412 
L 366.842446 -107.051552 
L 365.806059 -110.076788 
L 364.769672 -113.188875 
L 363.733286 -116.373064 
L 362.696899 -119.615206 
L 361.660513 -122.904265 
L 360.624126 -126.234889 
L 359.587739 -129.609601 
L 358.551353 -133.040222 
L 357.514966 -136.54824 
L 356.47858 -140.163988 
L 355.442193 -143.92473 
L 354.405807 -147.871895 
L 353.36942 -152.047868 
L 352.333033 -156.492784 
L 351.296647 -161.241727 
L 350.26026 -166.322608 
L 349.223874 -171.754842 
L 348.187487 -177.548714 
L 347.1511 -183.705212 
L 346.114714 -190.216014 
L 345.078327 -197.063336 
L 344.041941 -204.219466 
L 343.005554 -211.646003 
L 341.969167 -219.292986 
L 340.932781 -227.098317 
L 339.896394 -234.987927 
L 338.860008 -242.877143 
L 337.823621 -250.673577 
L 336.787234 -258.281593 
L 335.750848 -265.608144 
L 334.714461 -272.569409 
L 333.678075 -279.09743 
L 332.641688 -285.14578 
L 331.605302 -290.693266 
L 330.568915 -295.74486 
L 329.532528 -300.329368 
L 328.496142 -304.493807 
L 327.459755 -308.294976 
L 326.423369 -311.789208 
L 325.386982 -315.021664 
L 324.350595 -318.016712 
L 323.314209 -320.770886 
L 322.277822 -323.249596 
L 321.241436 -325.388252 
L 320.205049 -327.09782 
L 319.168662 -328.274176 
L 318.132276 -328.81007 
L 317.095889 -328.608128 
L 316.059503 -327.593246 
L 315.023116 -325.722806 
L 313.986729 -322.993532 
L 312.950343 -319.444257 
L 311.913956 -315.15442 
L 310.87757 -310.238602 
L 309.841183 -304.837833 
L 308.804797 -299.108691 
L 307.76841 -293.211344 
L 306.732023 -287.297736 
L 305.695637 -281.500985 
L 304.65925 -275.926901 
L 303.622864 -270.648255 
L 302.586477 -265.702142 
L 301.55009 -261.090466 
L 300.513704 -256.783295 
L 299.477317 -252.724581 
L 298.440931 -248.839608 
L 297.404544 -245.043432 
L 296.368157 -241.249583 
L 295.331771 -237.378369 
L 294.295384 -233.364193 
L 293.258998 -229.161422 
L 292.222611 -224.748405 
L 291.186225 -220.129375 
L 290.149838 -215.334034 
L 289.113451 -210.414796 
L 288.077065 -205.441811 
L 287.040678 -200.496125 
L 286.004292 -195.661545 
L 284.967905 -191.015988 
L 283.931518 -186.623208 
L 282.895132 -182.525821 
L 281.858745 -178.740457 
L 280.822359 -175.255609 
L 279.785972 -172.032481 
L 278.749585 -169.008724 
L 277.713199 -166.104655 
L 276.676812 -163.231201 
L 275.640426 -160.298686 
L 274.604039 -157.225446 
L 273.567652 -153.945334 
L 272.531266 -150.413343 
L 271.494879 -146.60881 
L 270.458493 -142.535989 
L 269.422106 -138.222088 
L 268.38572 -133.713212 
L 267.349333 -129.068825 
L 266.312946 -124.355556 
L 265.27656 -119.641131 
L 264.240173 -114.989139 
L 263.203787 -110.455148 
L 262.1674 -106.084377 
L 261.131013 -101.910917 
L 260.094627 -97.958222 
L 259.05824 -94.24048 
L 258.021854 -90.764387 
L 256.985467 -87.530968 
L 255.94908 -84.537128 
L 254.912694 -81.776834 
L 253.876307 -79.241939 
L 252.839921 -76.922726 
L 251.803534 -74.808338 
L 250.767147 -72.887185 
L 249.730761 -71.147391 
L 248.694374 -69.577263 
L 247.657988 -68.165711 
L 246.621601 -66.902527 
L 245.585215 -65.778453 
L 244.548828 -64.784997 
L 243.512441 -63.914028 
L 242.476055 -63.157232 
L 241.439668 -62.505542 
L 240.403282 -61.948683 
L 239.366895 -61.474923 
L 238.330508 -61.071112 
L 237.294122 -60.723031 
L 236.257735 -60.415993 
L 235.221349 -60.135638 
L 234.184962 -59.868798 
L 233.148575 -59.604312 
L 232.112189 -59.333689 
L 231.075802 -59.051523 
L 230.039416 -58.755617 
L 229.003029 -58.44681 
L 227.966642 -58.128532 
L 226.930256 -57.806155 
L 225.893869 -57.486229 
L 224.857483 -57.175693 
L 223.821096 -56.88114 
L 222.78471 -56.608233 
L 221.748323 -56.36128 
L 220.711936 -56.143021 
L 219.67555 -55.9546 
L 218.639163 -55.79569 
L 217.602777 -55.664742 
L 216.56639 -55.559296 
L 215.530003 -55.476311 
L 214.493617 -55.412476 
L 213.45723 -55.364477 
L 212.420844 -55.329194 
L 211.384457 -55.303838 
L 210.34807 -55.286023 
L 209.311684 -55.273786 
L 208.275297 -55.265567 
z
" style="stroke: #b73779; stroke-width: 1.5"/>
    </defs>
    <g clip-path="url(#p7b2bdbe508)">
     <use xlink:href="#m707520145e" x="0" y="395.512536" style="fill: #b73779; fill-opacity: 0.25; stroke: #b73779; stroke-width: 1.5"/>
    </g>
   </g>
   <g id="FillBetweenPolyCollection_3">
    <defs>
     <path id="mca4695196b" d="M 352.095999 -55.27167 
L 352.095999 -55.251328 
L 353.053708 -55.251328 
L 354.011418 -55.251328 
L 354.969128 -55.251328 
L 355.926837 -55.251328 
L 356.884547 -55.251328 
L 357.842257 -55.251328 
L 358.799966 -55.251328 
L 359.757676 -55.251328 
L 360.715386 -55.251328 
L 361.673096 -55.251328 
L 362.630805 -55.251328 
L 363.588515 -55.251328 
L 364.546225 -55.251328 
L 365.503934 -55.251328 
L 366.461644 -55.251328 
L 367.419354 -55.251328 
L 368.377063 -55.251328 
L 369.334773 -55.251328 
L 370.292483 -55.251328 
L 371.250192 -55.251328 
L 372.207902 -55.251328 
L 373.165612 -55.251328 
L 374.123322 -55.251328 
L 375.081031 -55.251328 
L 376.038741 -55.251328 
L 376.996451 -55.251328 
L 377.95416 -55.251328 
L 378.91187 -55.251328 
L 379.86958 -55.251328 
L 380.827289 -55.251328 
L 381.784999 -55.251328 
L 382.742709 -55.251328 
L 383.700418 -55.251328 
L 384.658128 -55.251328 
L 385.615838 -55.251328 
L 386.573548 -55.251328 
L 387.531257 -55.251328 
L 388.488967 -55.251328 
L 389.446677 -55.251328 
L 390.404386 -55.251328 
L 391.362096 -55.251328 
L 392.319806 -55.251328 
L 393.277515 -55.251328 
L 394.235225 -55.251328 
L 395.192935 -55.251328 
L 396.150644 -55.251328 
L 397.108354 -55.251328 
L 398.066064 -55.251328 
L 399.023774 -55.251328 
L 399.981483 -55.251328 
L 400.939193 -55.251328 
L 401.896903 -55.251328 
L 402.854612 -55.251328 
L 403.812322 -55.251328 
L 404.770032 -55.251328 
L 405.727741 -55.251328 
L 406.685451 -55.251328 
L 407.643161 -55.251328 
L 408.60087 -55.251328 
L 409.55858 -55.251328 
L 410.51629 -55.251328 
L 411.474 -55.251328 
L 412.431709 -55.251328 
L 413.389419 -55.251328 
L 414.347129 -55.251328 
L 415.304838 -55.251328 
L 416.262548 -55.251328 
L 417.220258 -55.251328 
L 418.177967 -55.251328 
L 419.135677 -55.251328 
L 420.093387 -55.251328 
L 421.051096 -55.251328 
L 422.008806 -55.251328 
L 422.966516 -55.251328 
L 423.924225 -55.251328 
L 424.881935 -55.251328 
L 425.839645 -55.251328 
L 426.797355 -55.251328 
L 427.755064 -55.251328 
L 428.712774 -55.251328 
L 429.670484 -55.251328 
L 430.628193 -55.251328 
L 431.585903 -55.251328 
L 432.543613 -55.251328 
L 433.501322 -55.251328 
L 434.459032 -55.251328 
L 435.416742 -55.251328 
L 436.374451 -55.251328 
L 437.332161 -55.251328 
L 438.289871 -55.251328 
L 439.247581 -55.251328 
L 440.20529 -55.251328 
L 441.163 -55.251328 
L 442.12071 -55.251328 
L 443.078419 -55.251328 
L 444.036129 -55.251328 
L 444.993839 -55.251328 
L 445.951548 -55.251328 
L 446.909258 -55.251328 
L 447.866968 -55.251328 
L 448.824677 -55.251328 
L 449.782387 -55.251328 
L 450.740097 -55.251328 
L 451.697807 -55.251328 
L 452.655516 -55.251328 
L 453.613226 -55.251328 
L 454.570936 -55.251328 
L 455.528645 -55.251328 
L 456.486355 -55.251328 
L 457.444065 -55.251328 
L 458.401774 -55.251328 
L 459.359484 -55.251328 
L 460.317194 -55.251328 
L 461.274903 -55.251328 
L 462.232613 -55.251328 
L 463.190323 -55.251328 
L 464.148033 -55.251328 
L 465.105742 -55.251328 
L 466.063452 -55.251328 
L 467.021162 -55.251328 
L 467.978871 -55.251328 
L 468.936581 -55.251328 
L 469.894291 -55.251328 
L 470.852 -55.251328 
L 471.80971 -55.251328 
L 472.76742 -55.251328 
L 473.725129 -55.251328 
L 474.682839 -55.251328 
L 475.640549 -55.251328 
L 476.598259 -55.251328 
L 477.555968 -55.251328 
L 478.513678 -55.251328 
L 479.471388 -55.251328 
L 480.429097 -55.251328 
L 481.386807 -55.251328 
L 482.344517 -55.251328 
L 483.302226 -55.251328 
L 484.259936 -55.251328 
L 485.217646 -55.251328 
L 486.175355 -55.251328 
L 487.133065 -55.251328 
L 488.090775 -55.251328 
L 489.048485 -55.251328 
L 490.006194 -55.251328 
L 490.963904 -55.251328 
L 491.921614 -55.251328 
L 492.879323 -55.251328 
L 493.837033 -55.251328 
L 494.794743 -55.251328 
L 495.752452 -55.251328 
L 496.710162 -55.251328 
L 497.667872 -55.251328 
L 498.625581 -55.251328 
L 499.583291 -55.251328 
L 500.541001 -55.251328 
L 501.498711 -55.251328 
L 502.45642 -55.251328 
L 503.41413 -55.251328 
L 504.37184 -55.251328 
L 505.329549 -55.251328 
L 506.287259 -55.251328 
L 507.244969 -55.251328 
L 508.202678 -55.251328 
L 509.160388 -55.251328 
L 510.118098 -55.251328 
L 511.075807 -55.251328 
L 512.033517 -55.251328 
L 512.991227 -55.251328 
L 513.948937 -55.251328 
L 514.906646 -55.251328 
L 515.864356 -55.251328 
L 516.822066 -55.251328 
L 517.779775 -55.251328 
L 518.737485 -55.251328 
L 519.695195 -55.251328 
L 520.652904 -55.251328 
L 521.610614 -55.251328 
L 522.568324 -55.251328 
L 523.526033 -55.251328 
L 524.483743 -55.251328 
L 525.441453 -55.251328 
L 526.399163 -55.251328 
L 527.356872 -55.251328 
L 528.314582 -55.251328 
L 529.272292 -55.251328 
L 530.230001 -55.251328 
L 531.187711 -55.251328 
L 532.145421 -55.251328 
L 533.10313 -55.251328 
L 534.06084 -55.251328 
L 535.01855 -55.251328 
L 535.976259 -55.251328 
L 536.933969 -55.251328 
L 537.891679 -55.251328 
L 538.849389 -55.251328 
L 539.807098 -55.251328 
L 540.764808 -55.251328 
L 541.722518 -55.251328 
L 542.680227 -55.251328 
L 542.680227 -55.264872 
L 542.680227 -55.264872 
L 541.722518 -55.272735 
L 540.764808 -55.284396 
L 539.807098 -55.301265 
L 538.849389 -55.325066 
L 537.891679 -55.357827 
L 536.933969 -55.401826 
L 535.976259 -55.459503 
L 535.01855 -55.533325 
L 534.06084 -55.625626 
L 533.10313 -55.73843 
L 532.145421 -55.873278 
L 531.187711 -56.031092 
L 530.230001 -56.212075 
L 529.272292 -56.415673 
L 528.314582 -56.640584 
L 527.356872 -56.884801 
L 526.399163 -57.145672 
L 525.441453 -57.419961 
L 524.483743 -57.703901 
L 523.526033 -57.993269 
L 522.568324 -58.283529 
L 521.610614 -58.570086 
L 520.652904 -58.848738 
L 519.695195 -59.116339 
L 518.737485 -59.371659 
L 517.779775 -59.616378 
L 516.822066 -59.856062 
L 515.864356 -60.10093 
L 514.906646 -60.366211 
L 513.948937 -60.671923 
L 512.991227 -61.04197 
L 512.033517 -61.502582 
L 511.075807 -62.080216 
L 510.118098 -62.799179 
L 509.160388 -63.679255 
L 508.202678 -64.733675 
L 507.244969 -65.967687 
L 506.287259 -67.377922 
L 505.329549 -68.9526 
L 504.37184 -70.672559 
L 503.41413 -72.51295 
L 502.45642 -74.445441 
L 501.498711 -76.440726 
L 500.541001 -78.47118 
L 499.583291 -80.513506 
L 498.625581 -82.551232 
L 497.667872 -84.576917 
L 496.710162 -86.593878 
L 495.752452 -88.617243 
L 494.794743 -90.674111 
L 493.837033 -92.802643 
L 492.879323 -95.049989 
L 491.921614 -97.469105 
L 490.963904 -100.114677 
L 490.006194 -103.038528 
L 489.048485 -106.285008 
L 488.090775 -109.886925 
L 487.133065 -113.862525 
L 486.175355 -118.213906 
L 485.217646 -122.927054 
L 484.259936 -127.973477 
L 483.302226 -133.313158 
L 482.344517 -138.898424 
L 481.386807 -144.678191 
L 480.429097 -150.602054 
L 479.471388 -156.623747 
L 478.513678 -162.703644 
L 477.555968 -168.810105 
L 476.598259 -174.919665 
L 475.640549 -181.016182 
L 474.682839 -187.089212 
L 473.725129 -193.131919 
L 472.76742 -199.138919 
L 471.80971 -205.104457 
L 470.852 -211.021295 
L 469.894291 -216.880635 
L 468.936581 -222.673276 
L 467.978871 -228.391982 
L 467.021162 -234.034793 
L 466.063452 -239.608724 
L 465.105742 -245.133028 
L 464.148033 -250.641054 
L 463.190323 -256.179771 
L 462.232613 -261.806259 
L 461.274903 -267.580978 
L 460.317194 -273.558218 
L 459.359484 -279.77481 
L 458.401774 -286.238744 
L 457.444065 -292.91963 
L 456.486355 -299.742896 
L 455.528645 -306.589203 
L 454.570936 -313.299828 
L 453.613226 -319.687838 
L 452.655516 -325.553976 
L 451.697807 -330.705387 
L 450.740097 -334.974881 
L 449.782387 -338.238303 
L 448.824677 -340.427855 
L 447.866968 -341.539768 
L 446.909258 -341.635441 
L 445.951548 -340.835973 
L 444.993839 -339.31073 
L 444.036129 -337.261227 
L 443.078419 -334.902053 
L 442.12071 -332.440791 
L 441.163 -330.058982 
L 440.20529 -327.896026 
L 439.247581 -326.037612 
L 438.289871 -324.509825 
L 437.332161 -323.279469 
L 436.374451 -322.260514 
L 435.416742 -321.325883 
L 434.459032 -320.323229 
L 433.501322 -319.09288 
L 432.543613 -317.485877 
L 431.585903 -315.380066 
L 430.628193 -312.692433 
L 429.670484 -309.386388 
L 428.712774 -305.473341 
L 427.755064 -301.008665 
L 426.797355 -296.082833 
L 425.839645 -290.809121 
L 424.881935 -285.309625 
L 423.924225 -279.701464 
L 422.966516 -274.08489 
L 422.008806 -268.534587 
L 421.051096 -263.094929 
L 420.093387 -257.779263 
L 419.135677 -252.572767 
L 418.177967 -247.437937 
L 417.220258 -242.321602 
L 416.262548 -237.162318 
L 415.304838 -231.897274 
L 414.347129 -226.468124 
L 413.389419 -220.825553 
L 412.431709 -214.932637 
L 411.474 -208.767237 
L 410.51629 -202.323648 
L 409.55858 -195.613603 
L 408.60087 -188.66659 
L 407.643161 -181.529265 
L 406.685451 -174.263725 
L 405.727741 -166.944459 
L 404.770032 -159.653972 
L 403.812322 -152.477354 
L 402.854612 -145.496284 
L 401.896903 -138.78319 
L 400.939193 -132.396307 
L 399.981483 -126.376328 
L 399.023774 -120.745114 
L 398.066064 -115.506615 
L 397.108354 -110.649786 
L 396.150644 -106.152976 
L 395.192935 -101.989016 
L 394.235225 -98.130158 
L 393.277515 -94.552081 
L 392.319806 -91.236387 
L 391.362096 -88.171349 
L 390.404386 -85.35101 
L 389.446677 -82.773025 
L 388.488967 -80.435869 
L 387.531257 -78.336081 
L 386.573548 -76.466103 
L 385.615838 -74.813116 
L 384.658128 -73.358971 
L 383.700418 -72.081088 
L 382.742709 -70.954005 
L 381.784999 -69.951189 
L 380.827289 -69.046725 
L 379.86958 -68.216643 
L 378.91187 -67.439767 
L 377.95416 -66.698114 
L 376.996451 -65.97699 
L 376.038741 -65.264935 
L 375.081031 -64.553657 
L 374.123322 -63.838021 
L 373.165612 -63.116087 
L 372.207902 -62.389109 
L 371.250192 -61.661403 
L 370.292483 -60.93999 
L 369.334773 -60.233978 
L 368.377063 -59.553713 
L 367.419354 -58.909771 
L 366.461644 -58.311938 
L 365.503934 -57.768296 
L 364.546225 -57.284543 
L 363.588515 -56.863624 
L 362.630805 -56.50568 
L 361.673096 -56.208298 
L 360.715386 -55.966978 
L 359.757676 -55.775738 
L 358.799966 -55.62775 
L 357.842257 -55.515931 
L 356.884547 -55.433436 
L 355.926837 -55.374012 
L 354.969128 -55.332218 
L 354.011418 -55.303516 
L 353.053708 -55.284271 
L 352.095999 -55.27167 
z
" style="stroke: #fc8961; stroke-width: 1.5"/>
    </defs>
    <g clip-path="url(#p7b2bdbe508)">
     <use xlink:href="#mca4695196b" x="0" y="395.512536" style="fill: #fc8961; fill-opacity: 0.25; stroke: #fc8961; stroke-width: 1.5"/>
    </g>
   </g>
   <g id="patch_3">
    <path d="M 63.3075 340.261208 
L 63.3075 7.621208 
" style="fill: none; stroke: #000000; stroke-width: 1.2; stroke-linejoin: miter; stroke-linecap: square"/>
   </g>
   <g id="patch_4">
    <path d="M 63.3075 340.261208 
L 565.5075 340.261208 
" style="fill: none; stroke: #000000; stroke-width: 1.2; stroke-linejoin: miter; stroke-linecap: square"/>
   </g>
   <g id="legend_1">
    <g id="patch_5">
     <path d="M 467.929375 23.779021 
L 487.929375 23.779021 
L 487.929375 16.779021 
L 467.929375 16.779021 
z
" style="fill: #51127c; fill-opacity: 0.25; stroke: #51127c; stroke-width: 1.5; stroke-linejoin: miter"/>
    </g>
    <g id="text_18">
     <!-- Left-skewed -->
     <g style="fill: #262626" transform="translate(495.929375 23.779021) scale(0.1 -0.1)">
      <defs>
       <path id="ArialMT-4c" d="M 469 0 
L 469 4581 
L 1075 4581 
L 1075 541 
L 3331 541 
L 3331 0 
L 469 0 
z
" transform="scale(0.015625)"/>
       <path id="ArialMT-66" d="M 556 0 
L 556 2881 
L 59 2881 
L 59 3319 
L 556 3319 
L 556 3672 
Q 556 4006 616 4169 
Q 697 4388 901 4523 
Q 1106 4659 1475 4659 
Q 1713 4659 2000 4603 
L 1916 4113 
Q 1741 4144 1584 4144 
Q 1328 4144 1222 4034 
Q 1116 3925 1116 3625 
L 1116 3319 
L 1763 3319 
L 1763 2881 
L 1116 2881 
L 1116 0 
L 556 0 
z
" transform="scale(0.015625)"/>
       <path id="ArialMT-2d" d="M 203 1375 
L 203 1941 
L 1931 1941 
L 1931 1375 
L 203 1375 
z
" transform="scale(0.015625)"/>
       <path id="ArialMT-6b" d="M 425 0 
L 425 4581 
L 988 4581 
L 988 1969 
L 2319 3319 
L 3047 3319 
L 1778 2088 
L 3175 0 
L 2481 0 
L 1384 1697 
L 988 1316 
L 988 0 
L 425 0 
z
" transform="scale(0.015625)"/>
       <path id="ArialMT-77" d="M 1034 0 
L 19 3319 
L 600 3319 
L 1128 1403 
L 1325 691 
Q 1338 744 1497 1375 
L 2025 3319 
L 2603 3319 
L 3100 1394 
L 3266 759 
L 3456 1400 
L 4025 3319 
L 4572 3319 
L 3534 0 
L 2950 0 
L 2422 1988 
L 2294 2553 
L 1622 0 
L 1034 0 
z
" transform="scale(0.015625)"/>
       <path id="ArialMT-64" d="M 2575 0 
L 2575 419 
Q 2259 -75 1647 -75 
Q 1250 -75 917 144 
Q 584 363 401 755 
Q 219 1147 219 1656 
Q 219 2153 384 2558 
Q 550 2963 881 3178 
Q 1213 3394 1622 3394 
Q 1922 3394 2156 3267 
Q 2391 3141 2538 2938 
L 2538 4581 
L 3097 4581 
L 3097 0 
L 2575 0 
z
M 797 1656 
Q 797 1019 1065 703 
Q 1334 388 1700 388 
Q 2069 388 2326 689 
Q 2584 991 2584 1609 
Q 2584 2291 2321 2609 
Q 2059 2928 1675 2928 
Q 1300 2928 1048 2622 
Q 797 2316 797 1656 
z
" transform="scale(0.015625)"/>
      </defs>
      <use xlink:href="#ArialMT-4c"/>
      <use xlink:href="#ArialMT-65" transform="translate(55.615234 0)"/>
      <use xlink:href="#ArialMT-66" transform="translate(111.230469 0)"/>
      <use xlink:href="#ArialMT-74" transform="translate(139.013672 0)"/>
      <use xlink:href="#ArialMT-2d" transform="translate(166.796875 0)"/>
      <use xlink:href="#ArialMT-73" transform="translate(200.097656 0)"/>
      <use xlink:href="#ArialMT-6b" transform="translate(250.097656 0)"/>
      <use xlink:href="#ArialMT-65" transform="translate(300.097656 0)"/>
      <use xlink:href="#ArialMT-77" transform="translate(355.712891 0)"/>
      <use xlink:href="#ArialMT-65" transform="translate(427.929688 0)"/>
      <use xlink:href="#ArialMT-64" transform="translate(483.544922 0)"/>
     </g>
    </g>
    <g id="patch_6">
     <path d="M 467.929375 38.046208 
L 487.929375 38.046208 
L 487.929375 31.046208 
L 467.929375 31.046208 
z
" style="fill: #b73779; fill-opacity: 0.25; stroke: #b73779; stroke-width: 1.5; stroke-linejoin: miter"/>
    </g>
    <g id="text_19">
     <!-- Symmetric -->
     <g style="fill: #262626" transform="translate(495.929375 38.046208) scale(0.1 -0.1)">
      <defs>
       <path id="ArialMT-53" d="M 288 1472 
L 859 1522 
Q 900 1178 1048 958 
Q 1197 738 1509 602 
Q 1822 466 2213 466 
Q 2559 466 2825 569 
Q 3091 672 3220 851 
Q 3350 1031 3350 1244 
Q 3350 1459 3225 1620 
Q 3100 1781 2813 1891 
Q 2628 1963 1997 2114 
Q 1366 2266 1113 2400 
Q 784 2572 623 2826 
Q 463 3081 463 3397 
Q 463 3744 659 4045 
Q 856 4347 1234 4503 
Q 1613 4659 2075 4659 
Q 2584 4659 2973 4495 
Q 3363 4331 3572 4012 
Q 3781 3694 3797 3291 
L 3216 3247 
Q 3169 3681 2898 3903 
Q 2628 4125 2100 4125 
Q 1550 4125 1298 3923 
Q 1047 3722 1047 3438 
Q 1047 3191 1225 3031 
Q 1400 2872 2139 2705 
Q 2878 2538 3153 2413 
Q 3553 2228 3743 1945 
Q 3934 1663 3934 1294 
Q 3934 928 3725 604 
Q 3516 281 3123 101 
Q 2731 -78 2241 -78 
Q 1619 -78 1198 103 
Q 778 284 539 648 
Q 300 1013 288 1472 
z
" transform="scale(0.015625)"/>
       <path id="ArialMT-6d" d="M 422 0 
L 422 3319 
L 925 3319 
L 925 2853 
Q 1081 3097 1340 3245 
Q 1600 3394 1931 3394 
Q 2300 3394 2536 3241 
Q 2772 3088 2869 2813 
Q 3263 3394 3894 3394 
Q 4388 3394 4653 3120 
Q 4919 2847 4919 2278 
L 4919 0 
L 4359 0 
L 4359 2091 
Q 4359 2428 4304 2576 
Q 4250 2725 4106 2815 
Q 3963 2906 3769 2906 
Q 3419 2906 3187 2673 
Q 2956 2441 2956 1928 
L 2956 0 
L 2394 0 
L 2394 2156 
Q 2394 2531 2256 2718 
Q 2119 2906 1806 2906 
Q 1569 2906 1367 2781 
Q 1166 2656 1075 2415 
Q 984 2175 984 1722 
L 984 0 
L 422 0 
z
" transform="scale(0.015625)"/>
       <path id="ArialMT-72" d="M 416 0 
L 416 3319 
L 922 3319 
L 922 2816 
Q 1116 3169 1280 3281 
Q 1444 3394 1641 3394 
Q 1925 3394 2219 3213 
L 2025 2691 
Q 1819 2813 1613 2813 
Q 1428 2813 1281 2702 
Q 1134 2591 1072 2394 
Q 978 2094 978 1738 
L 978 0 
L 416 0 
z
" transform="scale(0.015625)"/>
       <path id="ArialMT-63" d="M 2588 1216 
L 3141 1144 
Q 3050 572 2676 248 
Q 2303 -75 1759 -75 
Q 1078 -75 664 370 
Q 250 816 250 1647 
Q 250 2184 428 2587 
Q 606 2991 970 3192 
Q 1334 3394 1763 3394 
Q 2303 3394 2647 3120 
Q 2991 2847 3088 2344 
L 2541 2259 
Q 2463 2594 2264 2762 
Q 2066 2931 1784 2931 
Q 1359 2931 1093 2626 
Q 828 2322 828 1663 
Q 828 994 1084 691 
Q 1341 388 1753 388 
Q 2084 388 2306 591 
Q 2528 794 2588 1216 
z
" transform="scale(0.015625)"/>
      </defs>
      <use xlink:href="#ArialMT-53"/>
      <use xlink:href="#ArialMT-79" transform="translate(66.699219 0)"/>
      <use xlink:href="#ArialMT-6d" transform="translate(116.699219 0)"/>
      <use xlink:href="#ArialMT-6d" transform="translate(200 0)"/>
      <use xlink:href="#ArialMT-65" transform="translate(283.300781 0)"/>
      <use xlink:href="#ArialMT-74" transform="translate(338.916016 0)"/>
      <use xlink:href="#ArialMT-72" transform="translate(366.699219 0)"/>
      <use xlink:href="#ArialMT-69" transform="translate(400 0)"/>
      <use xlink:href="#ArialMT-63" transform="translate(422.216797 0)"/>
     </g>
    </g>
    <g id="patch_7">
     <path d="M 467.929375 52.308708 
L 487.929375 52.308708 
L 487.929375 45.308708 
L 467.929375 45.308708 
z
" style="fill: #fc8961; fill-opacity: 0.25; stroke: #fc8961; stroke-width: 1.5; stroke-linejoin: miter"/>
    </g>
    <g id="text_20">
     <!-- Right-skewed -->
     <g style="fill: #262626" transform="translate(495.929375 52.308708) scale(0.1 -0.1)">
      <defs>
       <path id="ArialMT-52" d="M 503 0 
L 503 4581 
L 2534 4581 
Q 3147 4581 3465 4457 
Q 3784 4334 3975 4021 
Q 4166 3709 4166 3331 
Q 4166 2844 3850 2509 
Q 3534 2175 2875 2084 
Q 3116 1969 3241 1856 
Q 3506 1613 3744 1247 
L 4541 0 
L 3778 0 
L 3172 953 
Q 2906 1366 2734 1584 
Q 2563 1803 2427 1890 
Q 2291 1978 2150 2013 
Q 2047 2034 1813 2034 
L 1109 2034 
L 1109 0 
L 503 0 
z
M 1109 2559 
L 2413 2559 
Q 2828 2559 3062 2645 
Q 3297 2731 3419 2920 
Q 3541 3109 3541 3331 
Q 3541 3656 3305 3865 
Q 3069 4075 2559 4075 
L 1109 4075 
L 1109 2559 
z
" transform="scale(0.015625)"/>
       <path id="ArialMT-67" d="M 319 -275 
L 866 -356 
Q 900 -609 1056 -725 
Q 1266 -881 1628 -881 
Q 2019 -881 2231 -725 
Q 2444 -569 2519 -288 
Q 2563 -116 2559 434 
Q 2191 0 1641 0 
Q 956 0 581 494 
Q 206 988 206 1678 
Q 206 2153 378 2554 
Q 550 2956 876 3175 
Q 1203 3394 1644 3394 
Q 2231 3394 2613 2919 
L 2613 3319 
L 3131 3319 
L 3131 450 
Q 3131 -325 2973 -648 
Q 2816 -972 2473 -1159 
Q 2131 -1347 1631 -1347 
Q 1038 -1347 672 -1080 
Q 306 -813 319 -275 
z
M 784 1719 
Q 784 1066 1043 766 
Q 1303 466 1694 466 
Q 2081 466 2343 764 
Q 2606 1063 2606 1700 
Q 2606 2309 2336 2618 
Q 2066 2928 1684 2928 
Q 1309 2928 1046 2623 
Q 784 2319 784 1719 
z
" transform="scale(0.015625)"/>
       <path id="ArialMT-68" d="M 422 0 
L 422 4581 
L 984 4581 
L 984 2938 
Q 1378 3394 1978 3394 
Q 2347 3394 2619 3248 
Q 2891 3103 3008 2847 
Q 3125 2591 3125 2103 
L 3125 0 
L 2563 0 
L 2563 2103 
Q 2563 2525 2380 2717 
Q 2197 2909 1863 2909 
Q 1613 2909 1392 2779 
Q 1172 2650 1078 2428 
Q 984 2206 984 1816 
L 984 0 
L 422 0 
z
" transform="scale(0.015625)"/>
      </defs>
      <use xlink:href="#ArialMT-52"/>
      <use xlink:href="#ArialMT-69" transform="translate(72.216797 0)"/>
      <use xlink:href="#ArialMT-67" transform="translate(94.433594 0)"/>
      <use xlink:href="#ArialMT-68" transform="translate(150.048828 0)"/>
      <use xlink:href="#ArialMT-74" transform="translate(205.664062 0)"/>
      <use xlink:href="#ArialMT-2d" transform="translate(233.447266 0)"/>
      <use xlink:href="#ArialMT-73" transform="translate(266.748047 0)"/>
      <use xlink:href="#ArialMT-6b" transform="translate(316.748047 0)"/>
      <use xlink:href="#ArialMT-65" transform="translate(366.748047 0)"/>
      <use xlink:href="#ArialMT-77" transform="translate(422.363281 0)"/>
      <use xlink:href="#ArialMT-65" transform="translate(494.580078 0)"/>
      <use xlink:href="#ArialMT-64" transform="translate(550.195312 0)"/>
     </g>
    </g>
   </g>
  </g>
 </g>
 <defs>
  <clipPath id="p7b2bdbe508">
   <rect x="63.3075" y="7.621208" width="502.2" height="332.64"/>
  </clipPath>
 </defs>
</svg>
