<?xml version="1.0" encoding="UTF-8" standalone="no"?><!DOCTYPE svg PUBLIC "-//W3C//DTD SVG 1.1//EN" "http://www.w3.org/Graphics/SVG/1.1/DTD/svg11.dtd"><svg width="100%" height="100%" viewBox="0 0 2000 830" version="1.1" xmlns="http://www.w3.org/2000/svg" xmlns:xlink="http://www.w3.org/1999/xlink" xml:space="preserve" xmlns:serif="http://www.serif.com/" style="fill-rule:evenodd;clip-rule:evenodd;"><g><g><path d="M378.458,304.042c28.792,-15.5 43.084,-39.709 42.959,-72.584c-0.167,-33.625 -14.125,-57.791 -41.875,-72.458c-18.459,-9.75 -38,-14.708 -58.709,-14.917c-34.125,-0.291 -78.5,-0.333 -133.208,-0.125c-0.625,0 -0.958,0.334 -0.958,0.959l-0,333.25c-0,0.875 0.666,1.541 1.541,1.583c28.792,0.167 68.042,0.208 117.834,0.083c21.041,-0.041 36.416,-1.125 46.041,-3.208c19.459,-4.208 34.084,-9.542 43.834,-15.958c19.291,-12.667 31.125,-27.25 35.5,-43.792c14.291,-54.375 -3.334,-91.5 -52.875,-111.375c-0.625,-0.25 -0.667,-1.125 -0.084,-1.458" style="fill:none;fill-rule:nonzero;stroke:#80c1ce;stroke-width:8.33px;"/><path d="M1045.58,399.917c-6.833,16.5 -29.25,22.291 -45.5,20.75c-22.125,-2.084 -42.125,-10 -59.916,-23.75c-5.792,-4.5 -11.334,-8.709 -16.584,-12.584c-1.291,-0.958 -2.416,-0.833 -3.416,0.417l-38.584,47.875c-0.958,1.167 -0.833,2.25 0.292,3.292c36.583,33.208 79.792,49.125 129.583,47.791c52,-1.375 98.417,-30.75 105.375,-86.041c6.042,-47.625 -14.25,-82 -60.791,-103.209c-18.709,-8.541 -37.334,-16.708 -55.792,-24.5c-8.917,-3.791 -17.333,-8.708 -25.208,-14.791c-14.25,-10.959 -15.417,-33.542 -0.334,-44.25c29.917,-21.209 73.75,2.125 97.584,22.375c0.75,0.625 1.875,0.5 2.458,-0.292l37.5,-50.75c0.75,-1 0.625,-1.917 -0.333,-2.75c-35.5,-29.875 -75.375,-43.042 -119.625,-39.417c-21.667,1.75 -40.25,7.75 -55.75,17.959c-18.75,12.333 -31.25,28.666 -37.5,49.041c-12.167,39.667 -2.584,82.292 32.958,106.084c15.375,10.291 29.417,17.833 42.125,22.541c24.625,9.125 42.667,17 54.083,23.667c16.334,9.542 24.834,22.5 17.375,40.542" style="fill:none;fill-rule:nonzero;stroke:#80c1ce;stroke-width:8.33px;"/><path d="M1793.67,417.875c-0,-0.833 -0.667,-1.5 -1.5,-1.5l-145.542,0c-0.833,0 -1.5,-0.667 -1.5,-1.5l-0,-71c-0,-0.833 0.667,-1.5 1.5,-1.5l126.125,0c0.833,0 1.5,-0.667 1.5,-1.5l-0,-59.875c-0,-0.833 -0.667,-1.5 -1.5,-1.5l-126.375,0c-0.833,0 -1.5,-0.667 -1.5,-1.5l-0,-68.875c-0,-0.833 0.667,-1.5 1.5,-1.5l143.917,0c0.833,0 1.5,-0.667 1.5,-1.5l-0,-60.75c-0,-0.833 -0.667,-1.5 -1.5,-1.5l-213.792,0c-0.833,0 -1.5,0.667 -1.5,1.5l-0,333c-0,0.833 0.667,1.5 1.5,1.5l215.667,0c0.833,0 1.5,-0.667 1.5,-1.5l-0,-60.5" style="fill:none;fill-rule:nonzero;stroke:#80c1ce;stroke-width:8.33px;"/><path d="M254.292,207.833l-0,70.667c-0,1.083 0.875,1.958 1.958,1.958l55.333,0c22.667,0 41.042,-15.833 41.042,-35.375l0,-3.833c0,-19.542 -18.375,-35.375 -41.042,-35.375l-55.333,-0c-1.083,-0 -1.958,0.875 -1.958,1.958" style="fill:none;fill-rule:nonzero;stroke:#80c1ce;stroke-width:8.33px;"/><path d="M254.5,340.958l-0.417,75c0,0.667 0.584,1.25 1.25,1.25l67.75,0.375c24.209,0.125 43.917,-16.333 44.042,-36.708l0,-3.667c0.125,-20.375 -19.417,-37 -43.625,-37.125l-67.75,-0.375c-0.708,0 -1.25,0.542 -1.25,1.25" style="fill:none;fill-rule:nonzero;stroke:#80c1ce;stroke-width:8.33px;"/><path d="M533.917,534c-33.042,33.083 -50.584,50.625 -52.625,52.583c-11.667,11.417 -21,18.792 -27.959,22.084c-10,4.75 -22,7.125 -36,7.125c-136.083,0.083 -272.083,0.125 -408.041,0.166c-0.875,0 -1.584,-0.708 -1.584,-1.541c-0.083,-201.459 -0.125,-403.084 -0.125,-604.917c0,-0.375 0.084,-0.708 0.334,-0.917c0.291,-0.291 0.625,-0.458 1,-0.458c201.833,-0.125 403.458,-0.292 604.916,-0.375c0.834,0 1.542,0.708 1.542,1.583c0.083,135.959 0.167,271.959 0.208,408.042c0,14 -2.333,26 -7.083,35.958c-3.292,7 -10.667,16.334 -22.083,28.042c-1.959,2 -19.459,19.542 -52.5,52.625Zm-155.459,-229.958c28.792,-15.5 43.084,-39.709 42.959,-72.584c-0.167,-33.625 -14.125,-57.791 -41.875,-72.458c-18.459,-9.75 -38,-14.708 -58.709,-14.917c-34.125,-0.291 -78.5,-0.333 -133.208,-0.125c-0.625,0 -0.958,0.334 -0.958,0.959l-0,333.25c-0,0.875 0.666,1.541 1.541,1.583c28.792,0.167 68.042,0.208 117.834,0.083c21.041,-0.041 36.416,-1.125 46.041,-3.208c19.459,-4.208 34.084,-9.542 43.834,-15.958c19.291,-12.667 31.125,-27.25 35.5,-43.792c14.291,-54.375 -3.334,-91.5 -52.875,-111.375c-0.625,-0.25 -0.667,-1.125 -0.084,-1.458Z" style="fill:#00839c;fill-rule:nonzero;"/><path d="M694.458,8.333c0.25,-0.25 0.542,-0.375 0.875,-0.375c164.5,-0.166 304.209,-0.125 419.125,0.167c8.875,0.042 18,2.583 27.334,7.583c5.666,3.084 12.875,8.917 21.666,17.5c5.5,5.334 24.417,24.209 56.709,56.542c32.333,32.375 51.208,51.292 56.541,56.75c8.584,8.833 14.417,16.042 17.459,21.708c5.041,9.334 7.541,18.459 7.583,27.334c0.208,114.916 0.208,254.625 -0.083,419.125c-0,0.333 -0.125,0.625 -0.375,0.875c-0.209,0.208 -0.5,0.333 -0.834,0.333c-164.541,0.208 -304.25,0.125 -419.125,-0.167c-8.875,-0.041 -18,-2.541 -27.333,-7.583c-5.667,-3.042 -12.917,-8.875 -21.708,-17.458c-5.459,-5.375 -24.375,-24.25 -56.709,-56.584c-32.333,-32.333 -51.166,-51.25 -56.541,-56.75c-8.584,-8.791 -14.375,-16.041 -17.459,-21.708c-5,-9.333 -7.541,-18.458 -7.541,-27.333c-0.25,-114.875 -0.209,-254.584 0.083,-419.125c0,-0.334 0.125,-0.625 0.333,-0.834Zm351.125,391.584c-6.833,16.5 -29.25,22.291 -45.5,20.75c-22.125,-2.084 -42.125,-10 -59.916,-23.75c-5.792,-4.5 -11.334,-8.709 -16.584,-12.584c-1.291,-0.958 -2.416,-0.833 -3.416,0.417l-38.584,47.875c-0.958,1.167 -0.833,2.25 0.292,3.292c36.583,33.208 79.792,49.125 129.583,47.791c52,-1.375 98.417,-30.75 105.375,-86.041c6.042,-47.625 -14.25,-82 -60.791,-103.209c-18.709,-8.541 -37.334,-16.708 -55.792,-24.5c-8.917,-3.791 -17.333,-8.708 -25.208,-14.791c-14.25,-10.959 -15.417,-33.542 -0.334,-44.25c29.917,-21.209 73.75,2.125 97.584,22.375c0.75,0.625 1.875,0.5 2.458,-0.292l37.5,-50.75c0.75,-1 0.625,-1.917 -0.333,-2.75c-35.5,-29.875 -75.375,-43.042 -119.625,-39.417c-21.667,1.75 -40.25,7.75 -55.75,17.959c-18.75,12.333 -31.25,28.666 -37.5,49.041c-12.167,39.667 -2.584,82.292 32.958,106.084c15.375,10.291 29.417,17.833 42.125,22.541c24.625,9.125 42.667,17 54.083,23.667c16.334,9.542 24.834,22.5 17.375,40.542Z" style="fill:#00839c;fill-rule:nonzero;"/><path d="M1987.62,615.542c-0.25,0.25 -0.542,0.375 -0.917,0.375c-201.875,0.041 -403.583,0.083 -605.125,0.083c-0.833,0 -1.541,-0.708 -1.541,-1.583c-0.042,-136 -0.042,-272.042 -0,-408.167c-0,-14.042 2.375,-26.042 7.125,-36c3.291,-6.958 10.666,-16.292 22.083,-28c1.958,-2.042 19.5,-19.583 52.583,-52.667c33.042,-33.041 50.625,-50.583 52.625,-52.541c11.709,-11.417 21.042,-18.792 28,-22.084c10,-4.75 22,-7.125 36,-7.125c136.125,0 272.167,0.042 408.167,0.084c0.875,-0 1.583,0.666 1.583,1.541c0,201.5 -0.083,403.209 -0.166,605.084c-0,0.416 -0.125,0.75 -0.417,1Zm-193.958,-197.667c-0,-0.833 -0.667,-1.5 -1.5,-1.5l-145.542,0c-0.833,0 -1.5,-0.667 -1.5,-1.5l-0,-71c-0,-0.833 0.667,-1.5 1.5,-1.5l126.125,0c0.833,0 1.5,-0.667 1.5,-1.5l-0,-59.875c-0,-0.833 -0.667,-1.5 -1.5,-1.5l-126.375,0c-0.833,0 -1.5,-0.667 -1.5,-1.5l-0,-68.875c-0,-0.833 0.667,-1.5 1.5,-1.5l143.917,0c0.833,0 1.5,-0.667 1.5,-1.5l-0,-60.75c-0,-0.833 -0.667,-1.5 -1.5,-1.5l-213.792,0c-0.833,0 -1.5,0.667 -1.5,1.5l-0,333c-0,0.833 0.667,1.5 1.5,1.5l215.667,0c0.833,0 1.5,-0.667 1.5,-1.5l-0,-60.5Z" style="fill:#00839c;fill-rule:nonzero;"/><path d="M1045.58,399.917c7.459,-18.042 -1.041,-31 -17.375,-40.542c-11.416,-6.667 -29.458,-14.542 -54.083,-23.667c-12.708,-4.708 -26.75,-12.25 -42.125,-22.541c-35.542,-23.792 -45.125,-66.417 -32.958,-106.084c6.25,-20.375 18.75,-36.708 37.5,-49.041c15.5,-10.209 34.083,-16.209 55.75,-17.959c44.25,-3.625 84.125,9.542 119.625,39.417c0.958,0.833 1.083,1.75 0.333,2.75l-37.5,50.75c-0.583,0.792 -1.708,0.917 -2.458,0.292c-23.834,-20.25 -67.667,-43.584 -97.584,-22.375c-15.083,10.708 -13.916,33.291 0.334,44.25c7.875,6.083 16.291,11 25.208,14.791c18.458,7.792 37.083,15.959 55.792,24.5c46.541,21.209 66.833,55.584 60.791,103.209c-6.958,55.291 -53.375,84.666 -105.375,86.041c-49.791,1.334 -93,-14.583 -129.583,-47.791c-1.125,-1.042 -1.25,-2.125 -0.292,-3.292l38.584,-47.875c1,-1.25 2.125,-1.375 3.416,-0.417c5.25,3.875 10.792,8.084 16.584,12.584c17.791,13.75 37.791,21.666 59.916,23.75c16.25,1.541 38.667,-4.25 45.5,-20.75Z" style="fill:#fff;fill-rule:nonzero;"/><path d="M378.458,304.042c-0.583,0.333 -0.541,1.208 0.084,1.458c49.541,19.875 67.166,57 52.875,111.375c-4.375,16.542 -16.209,31.125 -35.5,43.792c-9.75,6.416 -24.375,11.75 -43.834,15.958c-9.625,2.083 -25,3.167 -46.041,3.208c-49.792,0.125 -89.042,0.084 -117.834,-0.083c-0.875,-0.042 -1.541,-0.708 -1.541,-1.583l-0,-333.25c-0,-0.625 0.333,-0.959 0.958,-0.959c54.708,-0.208 99.083,-0.166 133.208,0.125c20.709,0.209 40.25,5.167 58.709,14.917c27.75,14.667 41.708,38.833 41.875,72.458c0.125,32.875 -14.167,57.084 -42.959,72.584Zm-124.166,-96.209l-0,70.667c-0,1.083 0.875,1.958 1.958,1.958l55.333,0c22.667,0 41.042,-15.833 41.042,-35.375l-0,-3.833c-0,-19.542 -18.375,-35.375 -41.042,-35.375l-55.333,-0c-1.083,-0 -1.958,0.875 -1.958,1.958Zm0.208,133.125l-0.417,75c0,0.667 0.584,1.25 1.25,1.25l67.75,0.375c24.209,0.125 43.917,-16.333 44.042,-36.708l-0,-3.667c0.125,-20.375 -19.417,-37 -43.625,-37.125l-67.75,-0.375c-0.708,0 -1.25,0.542 -1.25,1.25Z" style="fill:#fff;fill-rule:nonzero;"/><path d="M1793.67,417.875l-0,60.5c-0,0.833 -0.667,1.5 -1.5,1.5l-215.667,0c-0.833,0 -1.5,-0.667 -1.5,-1.5l-0,-333c-0,-0.833 0.667,-1.5 1.5,-1.5l213.792,0c0.833,0 1.5,0.667 1.5,1.5l-0,60.75c-0,0.833 -0.667,1.5 -1.5,1.5l-143.917,0c-0.833,0 -1.5,0.667 -1.5,1.5l-0,68.875c-0,0.833 0.667,1.5 1.5,1.5l126.375,0c0.833,0 1.5,0.667 1.5,1.5l-0,59.875c-0,0.833 -0.667,1.5 -1.5,1.5l-126.125,0c-0.833,0 -1.5,0.667 -1.5,1.5l-0,71c-0,0.833 0.667,1.5 1.5,1.5l145.542,0c0.833,0 1.5,0.667 1.5,1.5Z" style="fill:#fff;fill-rule:nonzero;"/><path d="M254.292,207.833c-0,-1.083 0.875,-1.958 1.958,-1.958l55.333,0c22.667,0 41.042,15.833 41.042,35.375l0,3.833c0,19.542 -18.375,35.375 -41.042,35.375l-55.333,0c-1.083,0 -1.958,-0.875 -1.958,-1.958l-0,-70.667Z" style="fill:#00839c;fill-rule:nonzero;"/><path d="M254.5,340.958c0,-0.708 0.542,-1.25 1.25,-1.25l67.75,0.375c24.208,0.125 43.75,16.75 43.625,37.125l0,3.667c-0.125,20.375 -19.833,36.833 -44.042,36.708l-67.75,-0.375c-0.666,0 -1.25,-0.583 -1.25,-1.25l0.417,-75Z" style="fill:#00839c;fill-rule:nonzero;"/><path d="M1219.83,761l-5.291,0c-1.834,0 -2.75,-0.917 -2.75,-2.75l-0,-2.375c-0,-1.417 1.125,-2.542 2.5,-2.542l5.75,0c1.25,0 2.291,-1 2.333,-2.25c1.125,-24.583 15.667,-38.416 41.625,-31.625c5.75,1.5 8.875,4.834 9.417,10.042c0.416,3.958 -1.709,7.333 -6.375,10.125c-2.542,1.5 -5.834,0.667 -7.334,-1.917l-5.791,-10.041c-2.125,-3.667 -7.584,-3.25 -9.125,0.708c-2.459,6.292 -3.459,13.792 -2.917,22.5c0.125,1.667 1,2.5 2.667,2.5l12.666,0c1.667,0 2.5,0.833 2.5,2.5l0,1.417c0,2.5 -1.25,3.75 -3.75,3.75l-11.875,-0c-1.375,-0 -2.083,0.708 -2.083,2.125l0,46.25c0,1.333 0.542,2.416 1.583,3.208l6.625,4.875c2.875,2.125 2.5,3.167 -1.083,3.167l-32.292,-0c-1.625,-0 -2.083,-0.709 -1.333,-2.167c0.667,-1.333 2.417,-2.917 5.208,-4.75c1,-0.667 1.625,-1.833 1.625,-3.042l0,-47.166c0,-1.709 -0.833,-2.542 -2.5,-2.542Z" style="fill:#00839c;fill-rule:nonzero;"/><path d="M376.917,811.25l-0,-79.875c-0,-1.25 -0.417,-2.333 -1.292,-3.292c-1.292,-1.375 -2.375,-2.333 -3.333,-2.833c-5.959,-3.042 -5.709,-4.708 0.666,-5.042l21.625,-1.125c1.375,-0.083 2.084,0.584 2.084,2c0.041,27.709 0.041,56.792 -0,87.167c-0,1.667 0.375,3.042 1.166,4.167c1.209,1.791 2.209,2.958 3.042,3.458c5.625,3.333 5.375,4.958 -0.75,4.917l-29.042,-0.167c-1.458,-0.042 -2.041,-0.667 -1.75,-1.958c0.084,-0.417 0.292,-0.834 0.584,-1.209c0.333,-0.458 0.708,-0.75 1.125,-0.958c1.708,-0.75 3.083,-1.458 4.166,-2.125c1.125,-0.708 1.709,-1.75 1.709,-3.125Z" style="fill:#00839c;fill-rule:nonzero;"/><path d="M854.042,759.292c10.625,-10.042 27.875,-12.084 36.416,-0.25c3.25,4.541 4.834,12.625 4.709,24.25c-0.209,16.541 -0.209,25.666 -0.084,27.458c0.125,1.375 0.75,2.542 1.834,3.417c0.875,0.708 2.583,1.875 5.166,3.416c0.667,0.375 1.042,0.875 1.125,1.417c0.125,1.125 -0.333,1.667 -1.458,1.667l-33.542,-0c-0.541,-0 -0.833,-0.292 -0.833,-0.834l-0,-1.708c-0,-1.208 0.583,-1.875 1.792,-2c1.791,-0.25 3.333,-0.875 4.625,-1.875c1.125,-0.875 1.708,-1.958 1.708,-3.167l-0.583,-38c-0.125,-7.541 -4,-10.75 -11.667,-9.625c-0.083,0 -0.25,0.042 -0.458,0.084c-7.709,1.5 -11.5,6 -11.417,13.458l0.292,32.792c-0,1.458 0.5,2.583 1.458,3.416l4.75,4.042c2.667,2.292 2.25,3.458 -1.292,3.458l-30.708,0c-1,0 -1.5,-0.5 -1.5,-1.5l-0,-1.625c-0,-0.458 0.208,-0.791 0.667,-1l5.125,-2.166c1.291,-0.542 1.916,-1.542 1.916,-2.917l0,-80.417c0,-1.291 -0.625,-2.458 -1.625,-3.208l-6.208,-4.625c-2.375,-1.708 -2.083,-2.667 0.833,-2.833l24.042,-1.292c1.625,-0.083 2.458,0.708 2.458,2.333l0,36.792c0,2.25 0.834,2.583 2.459,1.042Z" style="fill:#00839c;fill-rule:nonzero;"/><path d="M1072.38,814.375c1.167,-0.708 1.708,-1.75 1.708,-3.125l0.125,-79.792c0,-1.25 -0.416,-2.333 -1.291,-3.291c-1.25,-1.375 -2.375,-2.334 -3.334,-2.834c-5.916,-3.041 -5.708,-4.708 0.667,-5.041l21.625,-1.084c1.375,-0.083 2.083,0.584 2.083,2c0,27.709 -0.041,56.709 -0.125,87.084c0,1.666 0.375,3.041 1.167,4.166c1.167,1.792 2.208,2.959 3.042,3.459c5.583,3.333 5.333,4.958 -0.792,4.916l-29,-0.208c-1.458,-0.042 -2.042,-0.708 -1.75,-1.958c0.083,-0.417 0.292,-0.834 0.583,-1.209c0.334,-0.458 0.709,-0.75 1.125,-0.958c1.709,-0.75 3.084,-1.458 4.167,-2.125Z" style="fill:#00839c;fill-rule:nonzero;"/><circle cx="1844.17" cy="732.833" r="11" style="fill:#00839c;"/><path d="M711.375,732.667c-13.833,2.625 -15.333,17.541 -3.542,25.458c6.459,4.333 32.584,13.042 35.834,29.417c3.75,18.625 -9.792,32.916 -28,35.458c-9.459,1.292 -19.792,0.083 -31.084,-3.625c-1.375,-0.458 -2.083,-1.375 -2.083,-2.833l0,-18.792c0,-1.417 0.708,-2.292 2.083,-2.583c1.042,-0.209 2.042,0.041 3,0.75c0.667,0.541 1.125,1.375 1.375,2.416c3,13.709 11.375,19 25.084,15.834c14.666,-3.375 14.458,-21.334 1.916,-27.959c-11.125,-5.875 -18.708,-10.125 -22.791,-12.708c-12.625,-8.083 -15.167,-26 -7.167,-37.375c10.5,-14.917 32.792,-13.417 50.375,-10c1.625,0.292 2.5,1.25 2.542,2.833l0.708,18.959c0,0.083 -0.167,0.416 -0.375,0.791c-1.042,1.875 -2.542,2.125 -4.417,0.709c-0.625,-0.459 -1.083,-1.209 -1.375,-2.209c-3.25,-11.875 -10.625,-16.708 -22.083,-14.541Z" style="fill:#00839c;fill-rule:nonzero;"/><path d="M67.125,769.917c1.417,0.166 3.292,0.708 5.625,1.583c11.125,4.208 15.708,16.542 13.333,27.333c-3.125,14.125 -12.416,21.334 -27.875,21.709c-4.958,0.125 -21.291,0.166 -49.041,0.208c-0.792,0 -1.25,-0.375 -1.292,-1.167l-0.042,-1.125c-0.083,-1.25 0.459,-2.083 1.625,-2.458l5.667,-1.958c1.25,-0.417 1.875,-1.292 1.875,-2.584l0,-73.958c0,-1.375 -0.542,-2.458 -1.583,-3.333c-1.625,-1.334 -3.75,-2.334 -6.292,-3c-0.75,-0.167 -1.333,-0.75 -1.583,-1.5c-0.375,-1.209 -0.084,-2.25 0.916,-3.084c0.5,-0.416 1.167,-0.625 2,-0.666c6.792,-0.084 20.042,-0.125 39.667,-0.125c11.083,-0 26.833,2.25 29.792,14.958c2.833,12.125 -1.209,20.917 -12.167,26.458c-2.958,1.5 -3.167,2.417 -0.625,2.709Zm-28.958,-35.084l-0.084,29.667c0,0.792 0.667,1.5 1.5,1.5l6.834,0c7.458,0 13.541,-5.958 13.541,-13.375l0,-5.917c0,-7.375 -6,-13.375 -13.458,-13.375l-6.833,0c-0.834,0 -1.5,0.667 -1.5,1.5Zm-0,42.709l0.083,32.25c0,1.958 1.583,3.5 3.542,3.5l7.125,-0c8.791,-0 15.916,-7.5 15.875,-16.75l-0,-5.917c-0.042,-9.208 -7.167,-16.667 -15.959,-16.667l-7.125,0c-1.958,0 -3.541,1.625 -3.541,3.584Z" style="fill:#00839c;fill-rule:nonzero;"/><path d="M1336.92,767.875l22.875,0c0.5,0 0.916,0.375 0.916,0.875l0,5.5c0,1.167 -0.583,1.75 -1.791,1.75l-20.209,0c-3.666,0 -5.5,1.833 -5.5,5.5l0,24.542c0,4.458 2.209,6.791 6.667,7c9.292,0.416 15.5,0.333 18.625,-0.25c6.042,-1.042 10,-5.042 11.917,-11.959c0.416,-1.541 1,-2.541 1.791,-2.958c0.584,-0.292 1.209,-0.458 1.834,-0.458c1.5,0.041 2.25,0.833 2.25,2.333l-0,18.708c-0,1.542 -0.75,2.292 -2.292,2.292l-70.083,-0c-0.709,-0 -1.084,-0.375 -1.084,-1.125l0,-1.167c0,-0.5 0.25,-1 0.709,-1.25l7.041,-4.041c1,-0.584 1.625,-1.667 1.625,-2.834l-0.041,-72.083c-0,-1.292 -0.417,-2.417 -1.209,-3.417c-0.958,-1.208 -3.291,-2.541 -7.083,-4.041c-1.083,-0.417 -1.542,-1.209 -1.417,-2.375c0.042,-0.5 0.25,-0.959 0.542,-1.417c0.5,-0.75 1.333,-1.167 2.25,-1.167l64.75,0c2,0 3,1 3,2.959l0,19.708c0,1.083 -0.542,1.625 -1.667,1.625l-1.5,0c-1.25,0 -2.333,-0.958 -2.458,-2.208c-1.917,-17.667 -16.792,-12.959 -28.708,-14.834c-3.625,-0.541 -5.459,0.875 -5.459,4.292l0,26.75c0,2.5 1.25,3.75 3.709,3.75Z" style="fill:#00839c;fill-rule:nonzero;"/><path d="M135,776.083c-0.125,-4.708 -1.167,-8.541 -3.042,-11.458c-0.791,-1.208 -1.833,-1.958 -3.208,-2.333c-8.542,-2.209 -15.125,1.125 -19.667,10c-0.625,1.208 -2.208,1.583 -3.333,0.75l-2.75,-2c-0.917,-0.667 -1.208,-1.917 -0.708,-2.917c5.25,-11.208 14.25,-16.917 26.958,-17.083c11.083,-0.125 18.542,3.625 22.375,11.333c1.792,3.542 2.667,10.75 2.667,21.708c-0,12.417 0.083,21.334 0.25,26.75c0.041,1.334 1.125,2.375 2.416,2.375l4.792,0c1.708,0 2.542,0.875 2.417,2.584c-0.125,1.5 -1.334,2.833 -3.667,3.958c-9.208,4.458 -17.125,4.333 -23.75,-0.458c-1.125,-0.834 -2.292,-0.917 -3.5,-0.25c-12.208,6.625 -22.417,6.041 -30.542,-1.709c-8.583,-8.166 -7.416,-25.333 4.042,-32.25c8.708,-5.25 17.625,-5.375 26,-6.625c1.542,-0.208 2.292,-1 2.25,-2.375Zm-6.792,10.542l-4.208,1.875c-4.917,2.208 -7.375,5.667 -7.417,10.375c-0.041,8.208 1.667,12.958 5.167,14.25c3.542,1.333 7.292,0.583 11.208,-2.208c1.25,-0.875 1.834,-2.084 1.834,-3.584l-0.25,-16.708c-0.084,-4.5 -2.209,-5.875 -6.334,-4Z" style="fill:#00839c;fill-rule:nonzero;"/><path d="M199.792,760.042c6.958,-6.125 12.166,-9.209 15.708,-9.25c6.125,-0.042 9.792,2.5 11.083,7.541c1.584,6.375 -3.458,12.334 -9.625,11.334c-0.708,-0.125 -2.875,-1.709 -6.458,-4.834c-1,-0.833 -2.375,-1.083 -3.625,-0.583c-5.292,2.125 -8.458,4.833 -8.458,11.542c-0.042,10.083 -0.042,21.25 -0.042,33.5c0,1.416 0.542,2.541 1.667,3.375l7.833,5.75c0.292,0.25 0.458,0.583 0.417,0.958c-0.042,0.417 -0.125,0.75 -0.292,1c-0.125,0.167 -0.333,0.25 -0.542,0.25l-35.125,-0c-1.708,-0 -2.291,-0.792 -1.708,-2.417c0.125,-0.375 0.333,-0.708 0.625,-1c0.375,-0.375 0.792,-0.666 1.292,-0.791c1.458,-0.417 2.833,-1 4.083,-1.792c1.292,-0.833 1.917,-2 1.917,-3.542l-0,-45.583c-0,-1.542 -0.542,-2.875 -1.584,-4.083c-1.041,-1.125 -2.458,-2.167 -4.208,-3.167c-5.208,-2.875 -4.833,-4.458 1.125,-4.75l22.042,-1.083c1.333,-0.084 2.416,1 2.416,2.333l0,4.625c0,1.292 0.5,1.5 1.459,0.667Z" style="fill:#00839c;fill-rule:nonzero;"/><path d="M252.25,797.042c4.708,17.875 20.417,20.625 31.333,6.875c0.917,-1.209 2.709,-1.417 3.917,-0.417l1.167,0.917c1.541,1.25 1.75,2.708 0.708,4.333c-7.833,12.208 -23.125,17.708 -36.833,13.375c-15.042,-4.75 -22.292,-16.833 -21.709,-36.25c1,-32.292 26.584,-38.417 53.875,-32.75c1.709,0.375 2.542,1.375 2.542,3.083l0,18c0,1.667 -0.833,2.5 -2.5,2.5c-0.375,0 -0.708,-0.083 -1.083,-0.208c-0.792,-0.333 -1.292,-0.958 -1.5,-1.833c-1.917,-8.917 -7.167,-17.334 -16.625,-15.417c-15.334,3.167 -16.292,26.333 -13.292,37.792Z" style="fill:#00839c;fill-rule:nonzero;"/><path d="M319.5,789.208c-0.25,19.667 16.125,32.959 32.208,15.084c1.625,-1.792 3.417,-1.959 5.292,-0.459l1.083,0.875c0.959,0.792 1.125,1.75 0.459,2.834c-15.417,24.958 -51.834,20.333 -58.459,-9.709c-5.375,-24.333 8.542,-51.416 37.334,-46.208c15.041,2.708 22.583,13.708 22.583,32.917c0,1.416 -1.167,2.541 -2.583,2.541l-35.75,0c-1.417,0 -2.125,0.709 -2.167,2.125Zm1.75,-9.916l19.833,0.208c0.875,0.042 1.584,-0.667 1.584,-1.5l-0,-0.75c0.125,-9.833 -4.709,-17.833 -10.75,-17.917l-1,0c-6.084,-0.083 -11.042,7.834 -11.167,17.667l-0,0.75c-0,0.875 0.667,1.542 1.5,1.542Z" style="fill:#00839c;fill-rule:nonzero;"/><path d="M447.099,824.083c-19.432,-0.083 -35.141,-16.708 -35.015,-37.059c0.124,-20.357 15.958,-36.774 35.401,-36.69c19.432,0.083 35.14,16.708 35.015,37.058c-0.125,20.358 -15.958,36.775 -35.401,36.691Zm0.226,-8.416c8.092,-0 14.633,-12.75 14.675,-28.517c0.042,-15.775 -6.5,-28.567 -14.575,-28.567c-8.092,0 -14.633,12.75 -14.675,28.517c-0.042,15.775 6.5,28.567 14.575,28.567Z" style="fill:#00839c;fill-rule:nonzero;"/><path d="M521.333,758.875c3.375,-2 6.667,-5.292 11.375,-6.542c11.542,-3.041 19.959,-0.75 25.292,6.875c2.708,3.917 4.125,11.834 4.208,23.75c0.042,9.084 0.042,18.125 -0.041,27.167c-0,1.5 0.625,2.708 1.833,3.583l4.208,3.125c3.417,2.5 3,3.75 -1.208,3.75l-30.667,0c-1.541,0 -2.125,-0.75 -1.75,-2.208c0.084,-0.375 0.292,-0.708 0.584,-1.083c0.416,-0.5 0.875,-0.834 1.375,-1.042c1.541,-0.583 2.875,-1.208 4.083,-1.917c1.292,-0.708 1.958,-1.75 1.958,-3.125l-0.541,-38.125c-0.084,-7.583 -3.917,-10.791 -11.542,-9.583c-0.125,0 -0.292,0.042 -0.458,0.083c-7.542,1.375 -11.25,5.834 -11.209,13.459l0.334,32.791c0.041,1.709 0.708,3.042 2.083,4.042l5.625,4.167c0.25,0.166 0.417,0.5 0.458,0.833c0.084,0.792 -0.125,1.375 -0.666,1.75c-0.334,0.25 -0.792,0.375 -1.417,0.333c-9.167,-0.541 -19.917,-0.666 -32.208,-0.375c-1.417,0.042 -2.042,-0.666 -1.917,-2.041c0.042,-0.709 0.5,-1.292 1.375,-1.667c2,-0.875 3.625,-1.75 4.875,-2.583c1.25,-0.875 1.875,-2.042 1.875,-3.584l0,-46.458c0,-1.167 -0.458,-2.083 -1.417,-2.792l-4.5,-3.333c-3.875,-2.875 -3.375,-4.417 1.417,-4.625l21.458,-1.042c1.375,-0.041 2.25,0.584 2.542,1.917c0.458,2 0.542,3.167 0.333,3.458c-0.625,1 1,1.792 2.25,1.042Z" style="fill:#00839c;fill-rule:nonzero;"/><path d="M613.542,778.417c1.5,-0.209 2.25,-1 2.25,-2.334c-0.125,-4.75 -1.167,-8.541 -3.042,-11.458c-0.75,-1.208 -1.833,-2 -3.208,-2.333c-8.542,-2.209 -15.084,1.125 -19.625,9.958c-0.667,1.208 -2.25,1.583 -3.334,0.75l-2.75,-2c-0.916,-0.708 -1.208,-1.917 -0.708,-2.917c5.25,-11.208 14.25,-16.875 26.958,-17.041c11.042,-0.125 18.5,3.666 22.334,11.375c1.75,3.5 2.625,10.75 2.625,21.666c-0.042,12.417 0.041,21.292 0.208,26.709c0.042,1.333 1.125,2.375 2.417,2.375l4.791,-0c1.709,-0 2.5,0.875 2.375,2.583c-0.083,1.5 -1.333,2.833 -3.666,3.958c-9.209,4.459 -17.125,4.292 -23.709,-0.5c-1.083,-0.833 -2.25,-0.916 -3.5,-0.25c-12.208,6.584 -22.375,6 -30.5,-1.75c-8.541,-8.166 -7.375,-25.291 4.084,-32.208c8.708,-5.208 17.625,-5.333 26,-6.583Zm-4,8.083l-4.292,1.833c-5.042,2.167 -7.583,5.625 -7.708,10.417c-0.167,8.333 1.5,13.167 5.041,14.542c3.584,1.375 7.375,0.708 11.417,-2.084c1.25,-0.875 1.875,-2.041 1.875,-3.583l-0,-16.958c-0,-4.584 -2.125,-5.959 -6.333,-4.167Z" style="fill:#00839c;fill-rule:nonzero;"/><path d="M809.458,803.833c0.917,-1.208 2.667,-1.416 3.917,-0.416l1.167,0.916c1.5,1.25 1.75,2.667 0.708,4.334c-7.792,12.208 -23.083,17.75 -36.792,13.458c-15.041,-4.708 -22.291,-16.792 -21.75,-36.167c0.917,-32.291 26.459,-38.458 53.75,-32.875c1.667,0.375 2.542,1.375 2.542,3.084l0.042,18c-0,1.625 -0.834,2.5 -2.5,2.5c-0.375,-0 -0.709,-0.084 -1.084,-0.209c-0.791,-0.333 -1.291,-0.958 -1.5,-1.833c-1.958,-8.917 -7.208,-17.292 -16.666,-15.375c-15.292,3.208 -16.209,26.375 -13.167,37.792c4.75,17.875 20.458,20.583 31.333,6.791Z" style="fill:#00839c;fill-rule:nonzero;"/><path d="M944.512,824.082c-19.429,-0.165 -35.012,-16.832 -34.844,-37.181c0.165,-20.359 16.082,-36.734 35.487,-36.566c19.428,0.165 35.012,16.832 34.844,37.18c-0.166,20.36 -16.082,36.735 -35.487,36.567Zm0.196,-8.207c8,0 14.459,-12.833 14.459,-28.667c-0,-15.833 -6.459,-28.666 -14.459,-28.666c-8,-0 -14.458,12.833 -14.458,28.666c-0,15.834 6.458,28.667 14.458,28.667Z" style="fill:#00839c;fill-rule:nonzero;"/><path d="M1022.85,824.041c-19.474,-0.083 -35.182,-16.666 -35.057,-37.017c0.125,-20.357 15.958,-36.732 35.443,-36.649c19.473,0.083 35.182,16.667 35.056,37.018c-0.124,20.357 -15.958,36.732 -35.442,36.648Zm0.184,-8.333c8.05,0 14.592,-12.75 14.634,-28.516c0.041,-15.775 -6.5,-28.567 -14.534,-28.567c-8.05,-0 -14.591,12.75 -14.633,28.516c-0.042,15.776 6.5,28.567 14.533,28.567Z" style="fill:#00839c;fill-rule:nonzero;"/><path d="M1204.23,792.202c-0.066,17.173 -14.025,31.09 -31.234,31.016l-5.916,-0.02c-17.208,-0.073 -31.083,-14.031 -31.016,-31.234l0.033,-9.749c0.067,-17.173 14.025,-31.09 31.234,-31.017l5.917,0.021c17.207,0.073 31.082,14.031 31.016,31.234l-0.034,9.749Zm-34.108,23.506c8.083,0 14.625,-12.791 14.625,-28.541c0,-15.75 -6.542,-28.542 -14.625,-28.542c-8.083,0 -14.625,12.792 -14.625,28.542c0,15.75 6.542,28.541 14.625,28.541Z" style="fill:#00839c;fill-rule:nonzero;"/><path d="M1440.54,803.875c0.916,-1.208 2.708,-1.375 3.916,-0.417l1.167,0.917c1.5,1.25 1.75,2.708 0.708,4.333c-7.833,12.209 -23.083,17.709 -36.791,13.375c-15.042,-4.708 -22.292,-16.791 -21.709,-36.166c0.959,-32.292 26.5,-38.417 53.792,-32.792c1.708,0.375 2.542,1.417 2.542,3.083l-0,18c-0,1.667 -0.834,2.5 -2.5,2.5c-0.334,0 -0.709,-0.083 -1.084,-0.208c-0.791,-0.333 -1.291,-0.958 -1.5,-1.833c-1.916,-8.917 -7.166,-17.334 -16.625,-15.375c-15.291,3.166 -16.25,26.291 -13.25,37.75c4.75,17.875 20.417,20.583 31.334,6.833Z" style="fill:#00839c;fill-rule:nonzero;"/><path d="M1489.99,824.081c-19.447,-0.206 -35.031,-16.873 -34.82,-37.241c0.206,-20.382 16.164,-36.715 35.592,-36.505c19.447,0.207 35.031,16.873 34.82,37.242c-0.206,20.381 -16.164,36.715 -35.592,36.504Zm0.311,-8.289c8.033,-0 14.533,-12.834 14.492,-28.651c-0.042,-15.808 -6.542,-28.599 -14.592,-28.599c-8.033,-0 -14.533,12.833 -14.492,28.65c0.042,15.808 6.542,28.6 14.592,28.6Z" style="fill:#00839c;fill-rule:nonzero;"/><path d="M1562.21,757.792c-0.666,1.041 1,1.791 2.25,1.041c3.375,-2 6.667,-5.291 11.375,-6.541c11.584,-3.042 20,-0.75 25.375,6.875c2.709,3.958 4.125,11.875 4.209,23.833c0.041,9.083 0.041,18.167 -0.042,27.208c0,1.5 0.583,2.709 1.833,3.584l4.209,3.125c3.416,2.541 3,3.791 -1.209,3.791l-30.75,-0.041c-1.541,-0 -2.125,-0.709 -1.75,-2.209c0.084,-0.333 0.292,-0.708 0.584,-1.083c0.416,-0.5 0.875,-0.833 1.375,-1.042c1.541,-0.583 2.916,-1.208 4.125,-1.916c1.291,-0.709 1.958,-1.75 1.958,-3.125l-0.542,-38.209c-0.083,-7.583 -3.958,-10.791 -11.583,-9.583c-0.125,0 -0.292,0 -0.458,0.083c-7.542,1.334 -11.292,5.834 -11.209,13.459l0.292,32.875c0.042,1.708 0.75,3.041 2.125,4.041l5.625,4.167c0.25,0.208 0.417,0.5 0.458,0.833c0.084,0.792 -0.125,1.375 -0.666,1.75c-0.334,0.25 -0.834,0.375 -1.417,0.334c-9.208,-0.5 -19.958,-0.625 -32.292,-0.375c-1.416,0.041 -2.041,-0.625 -1.916,-2.042c0.041,-0.708 0.5,-1.292 1.375,-1.667c2,-0.875 3.625,-1.75 4.875,-2.583c1.25,-0.875 1.875,-2.042 1.875,-3.583l0.041,-46.584c0,-1.166 -0.5,-2.083 -1.416,-2.791l-4.542,-3.334c-3.833,-2.875 -3.375,-4.416 1.458,-4.625l21.5,-1.041c1.375,-0.042 2.209,0.583 2.542,1.916c0.417,2 0.542,3.167 0.333,3.459Z" style="fill:#00839c;fill-rule:nonzero;"/><path d="M1689.23,791.923c0.067,17.202 -13.808,31.16 -31.016,31.233l-6.084,0.021c-17.208,0.073 -31.167,-13.844 -31.233,-31.016l-0.034,-9.667c-0.066,-17.202 13.809,-31.161 31.017,-31.233l6.083,-0.021c17.209,-0.073 31.167,13.843 31.233,31.016l0.034,9.667Zm-34.108,23.827c8.008,0 14.508,-12.792 14.55,-28.558c0.041,-15.775 -6.459,-28.609 -14.45,-28.609c-8.009,0 -14.509,12.792 -14.55,28.558c-0.042,15.776 6.458,28.609 14.45,28.609Z" style="fill:#00839c;fill-rule:nonzero;"/><path d="M1729.17,759.458c13.25,-11.958 25.75,-11.625 37.458,1c1.083,1.167 2.167,1.167 3.25,0.042c14.375,-14.792 40.208,-13.042 41.625,11.417c0.208,3.291 0.292,16.166 0.333,38.625c0,1.291 0.5,2.375 1.542,3.208l4.167,3.333c2.916,2.375 2.5,3.542 -1.25,3.542l-31.375,0c-0.542,0 -0.834,-0.25 -0.834,-0.792l0,-1.708c0,-1.167 0.584,-1.833 1.75,-1.958c1.875,-0.25 3.459,-0.875 4.75,-1.917c1.084,-0.875 1.625,-1.958 1.625,-3.167l-0.5,-38.041c-0.083,-7.292 -3.833,-10.542 -11.208,-9.667c-0.208,0.042 -0.333,0.042 -0.458,0.042c-7.417,1.208 -11.084,5.375 -11.042,12.458l0.292,34.583c-0,1.125 0.5,2.125 1.333,2.792l5.042,4.083c2.75,2.209 2.375,3.334 -1.167,3.334l-30.833,-0c-1.459,-0 -2.042,-0.709 -1.75,-2.167c0.083,-0.375 0.25,-0.75 0.541,-1.167c0.25,-0.375 0.709,-0.666 1.334,-0.958c1.958,-0.875 3.291,-1.583 4,-2.125c1.375,-0.958 2.041,-2.167 2.041,-3.625l-0.583,-37.583c-0.125,-7.625 -3.917,-10.792 -11.458,-9.584c-0.125,0.042 -0.292,0.042 -0.417,0.084c-7.292,1.583 -10.875,5.833 -10.833,12.75l0.208,33.375c0,1.458 0.583,2.666 1.708,3.583l4.292,3.458c3.292,2.625 2.792,3.959 -1.417,3.959l-27.291,-0c-6.625,-0 -7.042,-1.667 -1.334,-4.959l2.375,-1.333c1.125,-0.667 1.834,-1.875 1.834,-3.208c-0.042,-17.5 -0.084,-32.5 -0.042,-45.042c0.042,-4.417 -1.75,-6.125 -5.333,-7.708c-1.292,-0.625 -2.125,-1.25 -2.417,-1.959c-0.292,-0.625 -0.292,-1.25 -0.083,-1.958c0.333,-1 1,-1.5 2.041,-1.5l23.709,0c1.25,0 1.875,0.625 1.875,1.875l-0,3.5c-0,2.25 0.833,2.625 2.5,1.083Z" style="fill:#00839c;fill-rule:nonzero;"/><path d="M1924.08,803.875c0.959,-1.208 2.709,-1.375 3.917,-0.417l1.167,0.917c1.541,1.25 1.791,2.708 0.708,4.333c-7.792,12.209 -23.083,17.709 -36.792,13.375c-15.041,-4.75 -22.291,-16.791 -21.708,-36.208c1,-32.292 26.542,-38.417 53.833,-32.75c1.709,0.375 2.542,1.375 2.542,3.083l0,18c0,1.667 -0.833,2.5 -2.5,2.5c-0.375,0 -0.708,-0.083 -1.083,-0.208c-0.792,-0.333 -1.292,-0.958 -1.5,-1.833c-1.917,-8.917 -7.167,-17.334 -16.625,-15.417c-15.292,3.167 -16.25,26.333 -13.25,37.75c4.708,17.875 20.416,20.625 31.291,6.875Z" style="fill:#00839c;fill-rule:nonzero;"/><path d="M1961.83,771.833c5.959,8.042 23.542,9.292 29.167,22c1.708,3.834 2,8.167 0.875,13c-4.333,19.459 -30.25,18.334 -46.375,13.334c-1.458,-0.459 -2.208,-1.459 -2.167,-3l0.375,-16.125c0.042,-1.125 0.959,-1.459 2.834,-1c0.291,0.041 0.666,0.25 1.125,0.541c0.583,0.375 1,0.959 1.208,1.584c2.875,9.333 12.708,17.625 22.083,11.75c2.459,-1.5 3.834,-3.125 4.167,-4.834c0.75,-4 -1.25,-8.083 -5,-10.041c-11.125,-5.917 -22.875,-10.125 -26.417,-20c-5.25,-14.417 6,-25.834 20.042,-27.542c6.458,-0.792 14.042,-0.333 22.708,1.417c1.459,0.291 2.167,1.208 2.167,2.666l-0,15.75c-0,0.959 -0.458,1.584 -1.375,1.792c-0.458,0.125 -0.917,0.083 -1.375,-0.083c-0.667,-0.209 -1.083,-0.667 -1.292,-1.334c-0.666,-2.333 -2.666,-5.541 -6.041,-9.666c-3.625,-4.417 -7.959,-5.209 -12.917,-2.334l-1.458,0.834c-5,2.875 -5.792,6.666 -2.334,11.291Z" style="fill:#00839c;fill-rule:nonzero;"/><path d="M1835.58,808.708c-0.166,-4.791 -0.25,-19.416 -0.25,-43.833c0,-1.208 -0.416,-2.292 -1.208,-3.25c-1.375,-1.542 -3,-2.708 -4.958,-3.5c-0.917,-0.375 -1.5,-1.042 -1.792,-2c-0.208,-0.708 -0.167,-1.333 0.208,-1.917c0.5,-0.833 1.25,-1.25 2.209,-1.25l23.791,0c0.875,0 1.292,0.459 1.292,1.334l0,55.291c0,1.542 0.583,2.75 1.792,3.709l4.375,3.5c3.208,2.583 2.75,3.875 -1.375,3.875l-30.625,-0c-1.459,-0 -1.875,-0.667 -1.25,-2l0.833,-1.667c0.25,-0.542 0.708,-0.875 1.167,-1c1.791,-0.292 3.25,-1.042 4.375,-2.25c1.041,-1.042 1.5,-2.75 1.416,-5.042Z" style="fill:#00839c;fill-rule:nonzero;"/></g></g></svg>