<?xml version="1.0" encoding="utf-8" standalone="no"?>
<!DOCTYPE svg PUBLIC "-//W3C//DTD SVG 1.1//EN"
  "http://www.w3.org/Graphics/SVG/1.1/DTD/svg11.dtd">
<svg xmlns:xlink="http://www.w3.org/1999/xlink" width="407.402109pt" height="336.111328pt" viewBox="0 0 407.402109 336.111328" xmlns="http://www.w3.org/2000/svg" version="1.1">
 <metadata>
  <rdf:RDF xmlns:dc="http://purl.org/dc/elements/1.1/" xmlns:cc="http://creativecommons.org/ns#" xmlns:rdf="http://www.w3.org/1999/02/22-rdf-syntax-ns#">
   <cc:Work>
    <dc:type rdf:resource="http://purl.org/dc/dcmitype/StillImage"/>
    <dc:date>2025-09-22T02:30:47.891859</dc:date>
    <dc:format>image/svg+xml</dc:format>
    <dc:creator>
     <cc:Agent>
      <dc:title>Matplotlib v3.10.6, https://matplotlib.org/</dc:title>
     </cc:Agent>
    </dc:creator>
   </cc:Work>
  </rdf:RDF>
 </metadata>
 <defs>
  <style type="text/css">*{stroke-linejoin: round; stroke-linecap: butt}</style>
 </defs>
 <g id="figure_1">
  <g id="patch_1">
   <path d="M 0 336.111328 
L 407.402109 336.111328 
L 407.402109 0 
L 0 0 
z
" style="fill: #ffffff"/>
  </g>
  <g id="axes_1">
   <g id="patch_2">
    <path d="M 72.272109 280.86 
L 400.202109 280.86 
L 400.202109 7.2 
L 72.272109 7.2 
z
" style="fill: #ffffff"/>
   </g>
   <g id="matplotlib.axis_1">
    <g id="xtick_1">
     <g id="line2d_1">
      <path d="M 172.202218 280.86 
L 172.202218 7.2 
" clip-path="url(#p077cb92cc9)" style="fill: none; stroke: #cccccc; stroke-width: 1.5; stroke-linecap: round"/>
     </g>
     <g id="line2d_2">
      <defs>
       <path id="mecc388406d" d="M 0 0 
L 0 9 
" style="stroke: #262626; stroke-width: 1.875"/>
      </defs>
      <g>
       <use xlink:href="#mecc388406d" x="172.202218" y="280.86" style="fill: #262626; stroke: #262626; stroke-width: 1.875"/>
      </g>
     </g>
     <g id="text_1">
      <!-- 5 -->
      <g style="fill: #262626" transform="translate(167.614444 305.170391) scale(0.165 -0.165)">
       <defs>
        <path id="ArialMT-35" d="M 266 1200 
L 856 1250 
Q 922 819 1161 601 
Q 1400 384 1738 384 
Q 2144 384 2425 690 
Q 2706 997 2706 1503 
Q 2706 1984 2436 2262 
Q 2166 2541 1728 2541 
Q 1456 2541 1237 2417 
Q 1019 2294 894 2097 
L 366 2166 
L 809 4519 
L 3088 4519 
L 3088 3981 
L 1259 3981 
L 1013 2750 
Q 1425 3038 1878 3038 
Q 2478 3038 2890 2622 
Q 3303 2206 3303 1553 
Q 3303 931 2941 478 
Q 2500 -78 1738 -78 
Q 1113 -78 717 272 
Q 322 622 266 1200 
z
" transform="scale(0.015625)"/>
       </defs>
       <use xlink:href="#ArialMT-35"/>
      </g>
     </g>
    </g>
    <g id="xtick_2">
     <g id="line2d_3">
      <path d="M 279.819588 280.86 
L 279.819588 7.2 
" clip-path="url(#p077cb92cc9)" style="fill: none; stroke: #cccccc; stroke-width: 1.5; stroke-linecap: round"/>
     </g>
     <g id="line2d_4">
      <g>
       <use xlink:href="#mecc388406d" x="279.819588" y="280.86" style="fill: #262626; stroke: #262626; stroke-width: 1.875"/>
      </g>
     </g>
     <g id="text_2">
      <!-- 10 -->
      <g style="fill: #262626" transform="translate(270.644041 305.170391) scale(0.165 -0.165)">
       <defs>
        <path id="ArialMT-31" d="M 2384 0 
L 1822 0 
L 1822 3584 
Q 1619 3391 1289 3197 
Q 959 3003 697 2906 
L 697 3450 
Q 1169 3672 1522 3987 
Q 1875 4303 2022 4600 
L 2384 4600 
L 2384 0 
z
" transform="scale(0.015625)"/>
        <path id="ArialMT-30" d="M 266 2259 
Q 266 3072 433 3567 
Q 600 4063 929 4331 
Q 1259 4600 1759 4600 
Q 2128 4600 2406 4451 
Q 2684 4303 2865 4023 
Q 3047 3744 3150 3342 
Q 3253 2941 3253 2259 
Q 3253 1453 3087 958 
Q 2922 463 2592 192 
Q 2263 -78 1759 -78 
Q 1097 -78 719 397 
Q 266 969 266 2259 
z
M 844 2259 
Q 844 1131 1108 757 
Q 1372 384 1759 384 
Q 2147 384 2411 759 
Q 2675 1134 2675 2259 
Q 2675 3391 2411 3762 
Q 2147 4134 1753 4134 
Q 1366 4134 1134 3806 
Q 844 3388 844 2259 
z
" transform="scale(0.015625)"/>
       </defs>
       <use xlink:href="#ArialMT-31"/>
       <use xlink:href="#ArialMT-30" transform="translate(55.615234 0)"/>
      </g>
     </g>
    </g>
    <g id="xtick_3">
     <g id="line2d_5">
      <path d="M 387.436957 280.86 
L 387.436957 7.2 
" clip-path="url(#p077cb92cc9)" style="fill: none; stroke: #cccccc; stroke-width: 1.5; stroke-linecap: round"/>
     </g>
     <g id="line2d_6">
      <g>
       <use xlink:href="#mecc388406d" x="387.436957" y="280.86" style="fill: #262626; stroke: #262626; stroke-width: 1.875"/>
      </g>
     </g>
     <g id="text_3">
      <!-- 15 -->
      <g style="fill: #262626" transform="translate(378.26141 305.170391) scale(0.165 -0.165)">
       <use xlink:href="#ArialMT-31"/>
       <use xlink:href="#ArialMT-35" transform="translate(55.615234 0)"/>
      </g>
     </g>
    </g>
    <g id="text_4">
     <!-- x -->
     <g style="fill: #262626" transform="translate(231.737109 325.333828) scale(0.18 -0.18)">
      <defs>
       <path id="ArialMT-78" d="M 47 0 
L 1259 1725 
L 138 3319 
L 841 3319 
L 1350 2541 
Q 1494 2319 1581 2169 
Q 1719 2375 1834 2534 
L 2394 3319 
L 3066 3319 
L 1919 1756 
L 3153 0 
L 2463 0 
L 1781 1031 
L 1600 1309 
L 728 0 
L 47 0 
z
" transform="scale(0.015625)"/>
      </defs>
      <use xlink:href="#ArialMT-78"/>
     </g>
    </g>
   </g>
   <g id="matplotlib.axis_2">
    <g id="ytick_1">
     <g id="line2d_7">
      <path d="M 72.272109 279.377536 
L 400.202109 279.377536 
" clip-path="url(#p077cb92cc9)" style="fill: none; stroke: #cccccc; stroke-width: 1.5; stroke-linecap: round"/>
     </g>
     <g id="line2d_8">
      <defs>
       <path id="ma976b4059d" d="M 0 0 
L -9 0 
" style="stroke: #262626; stroke-width: 1.875"/>
      </defs>
      <g>
       <use xlink:href="#ma976b4059d" x="72.272109" y="279.377536" style="fill: #262626; stroke: #262626; stroke-width: 1.875"/>
      </g>
     </g>
     <g id="text_5">
      <!-- 2.5 -->
      <g style="fill: #262626" transform="translate(36.837109 285.282732) scale(0.165 -0.165)">
       <defs>
        <path id="ArialMT-32" d="M 3222 541 
L 3222 0 
L 194 0 
Q 188 203 259 391 
Q 375 700 629 1000 
Q 884 1300 1366 1694 
Q 2113 2306 2375 2664 
Q 2638 3022 2638 3341 
Q 2638 3675 2398 3904 
Q 2159 4134 1775 4134 
Q 1369 4134 1125 3890 
Q 881 3647 878 3216 
L 300 3275 
Q 359 3922 746 4261 
Q 1134 4600 1788 4600 
Q 2447 4600 2831 4234 
Q 3216 3869 3216 3328 
Q 3216 3053 3103 2787 
Q 2991 2522 2730 2228 
Q 2469 1934 1863 1422 
Q 1356 997 1212 845 
Q 1069 694 975 541 
L 3222 541 
z
" transform="scale(0.015625)"/>
        <path id="ArialMT-2e" d="M 581 0 
L 581 641 
L 1222 641 
L 1222 0 
L 581 0 
z
" transform="scale(0.015625)"/>
       </defs>
       <use xlink:href="#ArialMT-32"/>
       <use xlink:href="#ArialMT-2e" transform="translate(55.615234 0)"/>
       <use xlink:href="#ArialMT-35" transform="translate(83.398438 0)"/>
      </g>
     </g>
    </g>
    <g id="ytick_2">
     <g id="line2d_9">
      <path d="M 72.272109 242.154897 
L 400.202109 242.154897 
" clip-path="url(#p077cb92cc9)" style="fill: none; stroke: #cccccc; stroke-width: 1.5; stroke-linecap: round"/>
     </g>
     <g id="line2d_10">
      <g>
       <use xlink:href="#ma976b4059d" x="72.272109" y="242.154897" style="fill: #262626; stroke: #262626; stroke-width: 1.875"/>
      </g>
     </g>
     <g id="text_6">
      <!-- 5.0 -->
      <g style="fill: #262626" transform="translate(36.837109 248.060093) scale(0.165 -0.165)">
       <use xlink:href="#ArialMT-35"/>
       <use xlink:href="#ArialMT-2e" transform="translate(55.615234 0)"/>
       <use xlink:href="#ArialMT-30" transform="translate(83.398438 0)"/>
      </g>
     </g>
    </g>
    <g id="ytick_3">
     <g id="line2d_11">
      <path d="M 72.272109 204.932259 
L 400.202109 204.932259 
" clip-path="url(#p077cb92cc9)" style="fill: none; stroke: #cccccc; stroke-width: 1.5; stroke-linecap: round"/>
     </g>
     <g id="line2d_12">
      <g>
       <use xlink:href="#ma976b4059d" x="72.272109" y="204.932259" style="fill: #262626; stroke: #262626; stroke-width: 1.875"/>
      </g>
     </g>
     <g id="text_7">
      <!-- 7.5 -->
      <g style="fill: #262626" transform="translate(36.837109 210.837454) scale(0.165 -0.165)">
       <defs>
        <path id="ArialMT-37" d="M 303 3981 
L 303 4522 
L 3269 4522 
L 3269 4084 
Q 2831 3619 2401 2847 
Q 1972 2075 1738 1259 
Q 1569 684 1522 0 
L 944 0 
Q 953 541 1156 1306 
Q 1359 2072 1739 2783 
Q 2119 3494 2547 3981 
L 303 3981 
z
" transform="scale(0.015625)"/>
       </defs>
       <use xlink:href="#ArialMT-37"/>
       <use xlink:href="#ArialMT-2e" transform="translate(55.615234 0)"/>
       <use xlink:href="#ArialMT-35" transform="translate(83.398438 0)"/>
      </g>
     </g>
    </g>
    <g id="ytick_4">
     <g id="line2d_13">
      <path d="M 72.272109 167.70962 
L 400.202109 167.70962 
" clip-path="url(#p077cb92cc9)" style="fill: none; stroke: #cccccc; stroke-width: 1.5; stroke-linecap: round"/>
     </g>
     <g id="line2d_14">
      <g>
       <use xlink:href="#ma976b4059d" x="72.272109" y="167.70962" style="fill: #262626; stroke: #262626; stroke-width: 1.875"/>
      </g>
     </g>
     <g id="text_8">
      <!-- 10.0 -->
      <g style="fill: #262626" transform="translate(27.661562 173.614815) scale(0.165 -0.165)">
       <use xlink:href="#ArialMT-31"/>
       <use xlink:href="#ArialMT-30" transform="translate(55.615234 0)"/>
       <use xlink:href="#ArialMT-2e" transform="translate(111.230469 0)"/>
       <use xlink:href="#ArialMT-30" transform="translate(139.013672 0)"/>
      </g>
     </g>
    </g>
    <g id="ytick_5">
     <g id="line2d_15">
      <path d="M 72.272109 130.486981 
L 400.202109 130.486981 
" clip-path="url(#p077cb92cc9)" style="fill: none; stroke: #cccccc; stroke-width: 1.5; stroke-linecap: round"/>
     </g>
     <g id="line2d_16">
      <g>
       <use xlink:href="#ma976b4059d" x="72.272109" y="130.486981" style="fill: #262626; stroke: #262626; stroke-width: 1.875"/>
      </g>
     </g>
     <g id="text_9">
      <!-- 12.5 -->
      <g style="fill: #262626" transform="translate(27.661562 136.392176) scale(0.165 -0.165)">
       <use xlink:href="#ArialMT-31"/>
       <use xlink:href="#ArialMT-32" transform="translate(55.615234 0)"/>
       <use xlink:href="#ArialMT-2e" transform="translate(111.230469 0)"/>
       <use xlink:href="#ArialMT-35" transform="translate(139.013672 0)"/>
      </g>
     </g>
    </g>
    <g id="ytick_6">
     <g id="line2d_17">
      <path d="M 72.272109 93.264342 
L 400.202109 93.264342 
" clip-path="url(#p077cb92cc9)" style="fill: none; stroke: #cccccc; stroke-width: 1.5; stroke-linecap: round"/>
     </g>
     <g id="line2d_18">
      <g>
       <use xlink:href="#ma976b4059d" x="72.272109" y="93.264342" style="fill: #262626; stroke: #262626; stroke-width: 1.875"/>
      </g>
     </g>
     <g id="text_10">
      <!-- 15.0 -->
      <g style="fill: #262626" transform="translate(27.661562 99.169537) scale(0.165 -0.165)">
       <use xlink:href="#ArialMT-31"/>
       <use xlink:href="#ArialMT-35" transform="translate(55.615234 0)"/>
       <use xlink:href="#ArialMT-2e" transform="translate(111.230469 0)"/>
       <use xlink:href="#ArialMT-30" transform="translate(139.013672 0)"/>
      </g>
     </g>
    </g>
    <g id="ytick_7">
     <g id="line2d_19">
      <path d="M 72.272109 56.041703 
L 400.202109 56.041703 
" clip-path="url(#p077cb92cc9)" style="fill: none; stroke: #cccccc; stroke-width: 1.5; stroke-linecap: round"/>
     </g>
     <g id="line2d_20">
      <g>
       <use xlink:href="#ma976b4059d" x="72.272109" y="56.041703" style="fill: #262626; stroke: #262626; stroke-width: 1.875"/>
      </g>
     </g>
     <g id="text_11">
      <!-- 17.5 -->
      <g style="fill: #262626" transform="translate(27.661562 61.946898) scale(0.165 -0.165)">
       <use xlink:href="#ArialMT-31"/>
       <use xlink:href="#ArialMT-37" transform="translate(55.615234 0)"/>
       <use xlink:href="#ArialMT-2e" transform="translate(111.230469 0)"/>
       <use xlink:href="#ArialMT-35" transform="translate(139.013672 0)"/>
      </g>
     </g>
    </g>
    <g id="ytick_8">
     <g id="line2d_21">
      <path d="M 72.272109 18.819064 
L 400.202109 18.819064 
" clip-path="url(#p077cb92cc9)" style="fill: none; stroke: #cccccc; stroke-width: 1.5; stroke-linecap: round"/>
     </g>
     <g id="line2d_22">
      <g>
       <use xlink:href="#ma976b4059d" x="72.272109" y="18.819064" style="fill: #262626; stroke: #262626; stroke-width: 1.875"/>
      </g>
     </g>
     <g id="text_12">
      <!-- 20.0 -->
      <g style="fill: #262626" transform="translate(27.661562 24.724259) scale(0.165 -0.165)">
       <use xlink:href="#ArialMT-32"/>
       <use xlink:href="#ArialMT-30" transform="translate(55.615234 0)"/>
       <use xlink:href="#ArialMT-2e" transform="translate(111.230469 0)"/>
       <use xlink:href="#ArialMT-30" transform="translate(139.013672 0)"/>
      </g>
     </g>
    </g>
    <g id="text_13">
     <!-- y -->
     <g style="fill: #262626" transform="translate(19.873125 148.53) rotate(-90) scale(0.18 -0.18)">
      <defs>
       <path id="ArialMT-79" d="M 397 -1278 
L 334 -750 
Q 519 -800 656 -800 
Q 844 -800 956 -737 
Q 1069 -675 1141 -563 
Q 1194 -478 1313 -144 
Q 1328 -97 1363 -6 
L 103 3319 
L 709 3319 
L 1400 1397 
Q 1534 1031 1641 628 
Q 1738 1016 1872 1384 
L 2581 3319 
L 3144 3319 
L 1881 -56 
Q 1678 -603 1566 -809 
Q 1416 -1088 1222 -1217 
Q 1028 -1347 759 -1347 
Q 597 -1347 397 -1278 
z
" transform="scale(0.015625)"/>
      </defs>
      <use xlink:href="#ArialMT-79"/>
     </g>
    </g>
   </g>
   <g id="PathCollection_1">
    <defs>
     <path id="m8e699ac080" d="M 0 3.535534 
C 0.937635 3.535534 1.836992 3.163008 2.5 2.5 
C 3.163008 1.836992 3.535534 0.937635 3.535534 0 
C 3.535534 -0.937635 3.163008 -1.836992 2.5 -2.5 
C 1.836992 -3.163008 0.937635 -3.535534 0 -3.535534 
C -0.937635 -3.535534 -1.836992 -3.163008 -2.5 -2.5 
C -3.163008 -1.836992 -3.535534 -0.937635 -3.535534 0 
C -3.535534 0.937635 -3.163008 1.836992 -2.5 2.5 
C -1.836992 3.163008 -0.937635 3.535534 0 3.535534 
z
" style="stroke: #000000; stroke-opacity: 0.8"/>
    </defs>
    <g clip-path="url(#p077cb92cc9)">
     <use xlink:href="#m8e699ac080" x="158.660963" y="198.952568" style="fill-opacity: 0.8; stroke: #000000; stroke-opacity: 0.8"/>
     <use xlink:href="#m8e699ac080" x="270.272394" y="243.304656" style="fill-opacity: 0.8; stroke: #000000; stroke-opacity: 0.8"/>
     <use xlink:href="#m8e699ac080" x="227.903795" y="222.832059" style="fill-opacity: 0.8; stroke: #000000; stroke-opacity: 0.8"/>
     <use xlink:href="#m8e699ac080" x="202.075215" y="244.857739" style="fill-opacity: 0.8; stroke: #000000; stroke-opacity: 0.8"/>
     <use xlink:href="#m8e699ac080" x="116.33089" y="188.87822" style="fill-opacity: 0.8; stroke: #000000; stroke-opacity: 0.8"/>
     <use xlink:href="#m8e699ac080" x="116.326218" y="180.288828" style="fill-opacity: 0.8; stroke: #000000; stroke-opacity: 0.8"/>
     <use xlink:href="#m8e699ac080" x="97.359772" y="157.041346" style="fill-opacity: 0.8; stroke: #000000; stroke-opacity: 0.8"/>
     <use xlink:href="#m8e699ac080" x="253.896399" y="240.905153" style="fill-opacity: 0.8; stroke: #000000; stroke-opacity: 0.8"/>
     <use xlink:href="#m8e699ac080" x="202.551072" y="227.46701" style="fill-opacity: 0.8; stroke: #000000; stroke-opacity: 0.8"/>
     <use xlink:href="#m8e699ac080" x="223.269957" y="230.06623" style="fill-opacity: 0.8; stroke: #000000; stroke-opacity: 0.8"/>
     <use xlink:href="#m8e699ac080" x="90.095771" y="162.903851" style="fill-opacity: 0.8; stroke: #000000; stroke-opacity: 0.8"/>
     <use xlink:href="#m8e699ac080" x="273.990787" y="235.244041" style="fill-opacity: 0.8; stroke: #000000; stroke-opacity: 0.8"/>
     <use xlink:href="#m8e699ac080" x="247.36184" y="238.816058" style="fill-opacity: 0.8; stroke: #000000; stroke-opacity: 0.8"/>
     <use xlink:href="#m8e699ac080" x="127.2408" y="181.73896" style="fill-opacity: 0.8; stroke: #000000; stroke-opacity: 0.8"/>
     <use xlink:href="#m8e699ac080" x="121.329867" y="185.891164" style="fill-opacity: 0.8; stroke: #000000; stroke-opacity: 0.8"/>
     <use xlink:href="#m8e699ac080" x="121.635842" y="173.020178" style="fill-opacity: 0.8; stroke: #000000; stroke-opacity: 0.8"/>
     <use xlink:href="#m8e699ac080" x="145.043472" y="205.991513" style="fill-opacity: 0.8; stroke: #000000; stroke-opacity: 0.8"/>
     <use xlink:href="#m8e699ac080" x="187.759555" y="215.191802" style="fill-opacity: 0.8; stroke: #000000; stroke-opacity: 0.8"/>
     <use xlink:href="#m8e699ac080" x="169.780938" y="209.932908" style="fill-opacity: 0.8; stroke: #000000; stroke-opacity: 0.8"/>
     <use xlink:href="#m8e699ac080" x="142.522687" y="216.457074" style="fill-opacity: 0.8; stroke: #000000; stroke-opacity: 0.8"/>
     <use xlink:href="#m8e699ac080" x="204.631121" y="211.739799" style="fill-opacity: 0.8; stroke: #000000; stroke-opacity: 0.8"/>
     <use xlink:href="#m8e699ac080" x="113.129854" y="180.613474" style="fill-opacity: 0.8; stroke: #000000; stroke-opacity: 0.8"/>
     <use xlink:href="#m8e699ac080" x="142.700032" y="194.651923" style="fill-opacity: 0.8; stroke: #000000; stroke-opacity: 0.8"/>
     <use xlink:href="#m8e699ac080" x="157.076738" y="203.193447" style="fill-opacity: 0.8; stroke: #000000; stroke-opacity: 0.8"/>
     <use xlink:href="#m8e699ac080" x="174.454216" y="226.784712" style="fill-opacity: 0.8; stroke: #000000; stroke-opacity: 0.8"/>
     <use xlink:href="#m8e699ac080" x="238.205751" y="234.024537" style="fill-opacity: 0.8; stroke: #000000; stroke-opacity: 0.8"/>
     <use xlink:href="#m8e699ac080" x="124.787383" y="193.635136" style="fill-opacity: 0.8; stroke: #000000; stroke-opacity: 0.8"/>
     <use xlink:href="#m8e699ac080" x="185.721326" y="221.553391" style="fill-opacity: 0.8; stroke: #000000; stroke-opacity: 0.8"/>
     <use xlink:href="#m8e699ac080" x="200.865698" y="217.24776" style="fill-opacity: 0.8; stroke: #000000; stroke-opacity: 0.8"/>
     <use xlink:href="#m8e699ac080" x="95.10629" y="172.250424" style="fill-opacity: 0.8; stroke: #000000; stroke-opacity: 0.8"/>
     <use xlink:href="#m8e699ac080" x="203.796604" y="187.776582" style="fill-opacity: 0.8; stroke: #000000; stroke-opacity: 0.8"/>
     <use xlink:href="#m8e699ac080" x="119.140766" y="183.980093" style="fill-opacity: 0.8; stroke: #000000; stroke-opacity: 0.8"/>
     <use xlink:href="#m8e699ac080" x="98.709549" y="175.677971" style="fill-opacity: 0.8; stroke: #000000; stroke-opacity: 0.8"/>
     <use xlink:href="#m8e699ac080" x="269.91814" y="239.838619" style="fill-opacity: 0.8; stroke: #000000; stroke-opacity: 0.8"/>
     <use xlink:href="#m8e699ac080" x="273.162125" y="268.420909" style="fill-opacity: 0.8; stroke: #000000; stroke-opacity: 0.8"/>
     <use xlink:href="#m8e699ac080" x="242.703995" y="229.712143" style="fill-opacity: 0.8; stroke: #000000; stroke-opacity: 0.8"/>
     <use xlink:href="#m8e699ac080" x="145.115441" y="194.666728" style="fill-opacity: 0.8; stroke: #000000; stroke-opacity: 0.8"/>
     <use xlink:href="#m8e699ac080" x="105.028511" y="145.022904" style="fill-opacity: 0.8; stroke: #000000; stroke-opacity: 0.8"/>
     <use xlink:href="#m8e699ac080" x="218.651968" y="223.862346" style="fill-opacity: 0.8; stroke: #000000; stroke-opacity: 0.8"/>
     <use xlink:href="#m8e699ac080" x="171.370819" y="200.15494" style="fill-opacity: 0.8; stroke: #000000; stroke-opacity: 0.8"/>
     <use xlink:href="#m8e699ac080" x="109.748503" y="183.847626" style="fill-opacity: 0.8; stroke: #000000; stroke-opacity: 0.8"/>
     <use xlink:href="#m8e699ac080" x="182.029668" y="225.731884" style="fill-opacity: 0.8; stroke: #000000; stroke-opacity: 0.8"/>
     <use xlink:href="#m8e699ac080" x="92.769766" y="160.442652" style="fill-opacity: 0.8; stroke: #000000; stroke-opacity: 0.8"/>
     <use xlink:href="#m8e699ac080" x="262.253928" y="224.883724" style="fill-opacity: 0.8; stroke: #000000; stroke-opacity: 0.8"/>
     <use xlink:href="#m8e699ac080" x="136.23692" y="180.714882" style="fill-opacity: 0.8; stroke: #000000; stroke-opacity: 0.8"/>
     <use xlink:href="#m8e699ac080" x="214.446352" y="233.083558" style="fill-opacity: 0.8; stroke: #000000; stroke-opacity: 0.8"/>
     <use xlink:href="#m8e699ac080" x="146.490269" y="175.152741" style="fill-opacity: 0.8; stroke: #000000; stroke-opacity: 0.8"/>
     <use xlink:href="#m8e699ac080" x="186.851357" y="230.871333" style="fill-opacity: 0.8; stroke: #000000; stroke-opacity: 0.8"/>
     <use xlink:href="#m8e699ac080" x="192.012262" y="203.046398" style="fill-opacity: 0.8; stroke: #000000; stroke-opacity: 0.8"/>
     <use xlink:href="#m8e699ac080" x="121.916713" y="154.925719" style="fill-opacity: 0.8; stroke: #000000; stroke-opacity: 0.8"/>
     <use xlink:href="#m8e699ac080" x="273.927787" y="254.865195" style="fill-opacity: 0.8; stroke: #000000; stroke-opacity: 0.8"/>
     <use xlink:href="#m8e699ac080" x="236.260282" y="235.520266" style="fill-opacity: 0.8; stroke: #000000; stroke-opacity: 0.8"/>
     <use xlink:href="#m8e699ac080" x="268.099851" y="236.617566" style="fill-opacity: 0.8; stroke: #000000; stroke-opacity: 0.8"/>
     <use xlink:href="#m8e699ac080" x="259.446461" y="242.604528" style="fill-opacity: 0.8; stroke: #000000; stroke-opacity: 0.8"/>
     <use xlink:href="#m8e699ac080" x="201.928284" y="238.301808" style="fill-opacity: 0.8; stroke: #000000; stroke-opacity: 0.8"/>
     <use xlink:href="#m8e699ac080" x="264.685747" y="235.899575" style="fill-opacity: 0.8; stroke: #000000; stroke-opacity: 0.8"/>
     <use xlink:href="#m8e699ac080" x="103.250317" y="196.89991" style="fill-opacity: 0.8; stroke: #000000; stroke-opacity: 0.8"/>
     <use xlink:href="#m8e699ac080" x="124.07241" y="181.233802" style="fill-opacity: 0.8; stroke: #000000; stroke-opacity: 0.8"/>
     <use xlink:href="#m8e699ac080" x="94.869358" y="191.873768" style="fill-opacity: 0.8; stroke: #000000; stroke-opacity: 0.8"/>
     <use xlink:href="#m8e699ac080" x="149.128472" y="173.874464" style="fill-opacity: 0.8; stroke: #000000; stroke-opacity: 0.8"/>
     <use xlink:href="#m8e699ac080" x="161.399492" y="212.857719" style="fill-opacity: 0.8; stroke: #000000; stroke-opacity: 0.8"/>
     <use xlink:href="#m8e699ac080" x="138.671686" y="198.129928" style="fill-opacity: 0.8; stroke: #000000; stroke-opacity: 0.8"/>
     <use xlink:href="#m8e699ac080" x="246.644114" y="218.567679" style="fill-opacity: 0.8; stroke: #000000; stroke-opacity: 0.8"/>
     <use xlink:href="#m8e699ac080" x="155.215461" y="217.383295" style="fill-opacity: 0.8; stroke: #000000; stroke-opacity: 0.8"/>
     <use xlink:href="#m8e699ac080" x="140.528502" y="190.590307" style="fill-opacity: 0.8; stroke: #000000; stroke-opacity: 0.8"/>
     <use xlink:href="#m8e699ac080" x="191.234667" y="192.053071" style="fill-opacity: 0.8; stroke: #000000; stroke-opacity: 0.8"/>
     <use xlink:href="#m8e699ac080" x="113.406932" y="208.530083" style="fill-opacity: 0.8; stroke: #000000; stroke-opacity: 0.8"/>
     <use xlink:href="#m8e699ac080" x="241.502914" y="226.152923" style="fill-opacity: 0.8; stroke: #000000; stroke-opacity: 0.8"/>
     <use xlink:href="#m8e699ac080" x="100.549622" y="176.279687" style="fill-opacity: 0.8; stroke: #000000; stroke-opacity: 0.8"/>
     <use xlink:href="#m8e699ac080" x="277.279439" y="229.635708" style="fill-opacity: 0.8; stroke: #000000; stroke-opacity: 0.8"/>
     <use xlink:href="#m8e699ac080" x="235.700834" y="245.312154" style="fill-opacity: 0.8; stroke: #000000; stroke-opacity: 0.8"/>
     <use xlink:href="#m8e699ac080" x="124.601788" y="208.128599" style="fill-opacity: 0.8; stroke: #000000; stroke-opacity: 0.8"/>
     <use xlink:href="#m8e699ac080" x="87.178018" y="167.752916" style="fill-opacity: 0.8; stroke: #000000; stroke-opacity: 0.8"/>
     <use xlink:href="#m8e699ac080" x="244.072387" y="225.368853" style="fill-opacity: 0.8; stroke: #000000; stroke-opacity: 0.8"/>
     <use xlink:href="#m8e699ac080" x="223.034553" y="218.784518" style="fill-opacity: 0.8; stroke: #000000; stroke-opacity: 0.8"/>
     <use xlink:href="#m8e699ac080" x="227.325223" y="218.839888" style="fill-opacity: 0.8; stroke: #000000; stroke-opacity: 0.8"/>
     <use xlink:href="#m8e699ac080" x="235.512077" y="236.954765" style="fill-opacity: 0.8; stroke: #000000; stroke-opacity: 0.8"/>
     <use xlink:href="#m8e699ac080" x="100.451605" y="176.657156" style="fill-opacity: 0.8; stroke: #000000; stroke-opacity: 0.8"/>
     <use xlink:href="#m8e699ac080" x="155.547172" y="194.808048" style="fill-opacity: 0.8; stroke: #000000; stroke-opacity: 0.8"/>
     <use xlink:href="#m8e699ac080" x="108.553464" y="193.553479" style="fill-opacity: 0.8; stroke: #000000; stroke-opacity: 0.8"/>
     <use xlink:href="#m8e699ac080" x="253.301179" y="205.203104" style="fill-opacity: 0.8; stroke: #000000; stroke-opacity: 0.8"/>
     <use xlink:href="#m8e699ac080" x="206.848191" y="209.860665" style="fill-opacity: 0.8; stroke: #000000; stroke-opacity: 0.8"/>
     <use xlink:href="#m8e699ac080" x="150.206997" y="215.061947" style="fill-opacity: 0.8; stroke: #000000; stroke-opacity: 0.8"/>
     <use xlink:href="#m8e699ac080" x="98.420291" y="169.637141" style="fill-opacity: 0.8; stroke: #000000; stroke-opacity: 0.8"/>
     <use xlink:href="#m8e699ac080" x="146.349101" y="210.502286" style="fill-opacity: 0.8; stroke: #000000; stroke-opacity: 0.8"/>
     <use xlink:href="#m8e699ac080" x="149.099995" y="185.222728" style="fill-opacity: 0.8; stroke: #000000; stroke-opacity: 0.8"/>
     <use xlink:href="#m8e699ac080" x="227.441258" y="206.787915" style="fill-opacity: 0.8; stroke: #000000; stroke-opacity: 0.8"/>
     <use xlink:href="#m8e699ac080" x="209.610387" y="230.090161" style="fill-opacity: 0.8; stroke: #000000; stroke-opacity: 0.8"/>
     <use xlink:href="#m8e699ac080" x="257.971425" y="220.254306" style="fill-opacity: 0.8; stroke: #000000; stroke-opacity: 0.8"/>
     <use xlink:href="#m8e699ac080" x="177.581673" y="200.646983" style="fill-opacity: 0.8; stroke: #000000; stroke-opacity: 0.8"/>
     <use xlink:href="#m8e699ac080" x="109.275075" y="170.927352" style="fill-opacity: 0.8; stroke: #000000; stroke-opacity: 0.8"/>
     <use xlink:href="#m8e699ac080" x="224.271872" y="194.700627" style="fill-opacity: 0.8; stroke: #000000; stroke-opacity: 0.8"/>
     <use xlink:href="#m8e699ac080" x="233.480957" y="229.780914" style="fill-opacity: 0.8; stroke: #000000; stroke-opacity: 0.8"/>
     <use xlink:href="#m8e699ac080" x="194.834038" y="223.98256" style="fill-opacity: 0.8; stroke: #000000; stroke-opacity: 0.8"/>
     <use xlink:href="#m8e699ac080" x="235.45335" y="240.053556" style="fill-opacity: 0.8; stroke: #000000; stroke-opacity: 0.8"/>
     <use xlink:href="#m8e699ac080" x="181.762092" y="220.385467" style="fill-opacity: 0.8; stroke: #000000; stroke-opacity: 0.8"/>
     <use xlink:href="#m8e699ac080" x="187.36756" y="211.325611" style="fill-opacity: 0.8; stroke: #000000; stroke-opacity: 0.8"/>
     <use xlink:href="#m8e699ac080" x="168.927834" y="198.720286" style="fill-opacity: 0.8; stroke: #000000; stroke-opacity: 0.8"/>
     <use xlink:href="#m8e699ac080" x="91.032293" y="172.737583" style="fill-opacity: 0.8; stroke: #000000; stroke-opacity: 0.8"/>
     <use xlink:href="#m8e699ac080" x="107.008107" y="170.066977" style="fill-opacity: 0.8; stroke: #000000; stroke-opacity: 0.8"/>
     <use xlink:href="#m8e699ac080" x="343.273222" y="57.791506" style="fill-opacity: 0.8; stroke: #000000; stroke-opacity: 0.8"/>
     <use xlink:href="#m8e699ac080" x="280.387182" y="74.140552" style="fill-opacity: 0.8; stroke: #000000; stroke-opacity: 0.8"/>
     <use xlink:href="#m8e699ac080" x="296.371975" y="60.313257" style="fill-opacity: 0.8; stroke: #000000; stroke-opacity: 0.8"/>
     <use xlink:href="#m8e699ac080" x="278.209135" y="51.618448" style="fill-opacity: 0.8; stroke: #000000; stroke-opacity: 0.8"/>
     <use xlink:href="#m8e699ac080" x="214.225292" y="63.674718" style="fill-opacity: 0.8; stroke: #000000; stroke-opacity: 0.8"/>
     <use xlink:href="#m8e699ac080" x="327.699011" y="74.308813" style="fill-opacity: 0.8; stroke: #000000; stroke-opacity: 0.8"/>
     <use xlink:href="#m8e699ac080" x="232.634184" y="101.953363" style="fill-opacity: 0.8; stroke: #000000; stroke-opacity: 0.8"/>
     <use xlink:href="#m8e699ac080" x="177.435859" y="57.490937" style="fill-opacity: 0.8; stroke: #000000; stroke-opacity: 0.8"/>
     <use xlink:href="#m8e699ac080" x="311.130279" y="73.744567" style="fill-opacity: 0.8; stroke: #000000; stroke-opacity: 0.8"/>
     <use xlink:href="#m8e699ac080" x="210.322589" y="67.641993" style="fill-opacity: 0.8; stroke: #000000; stroke-opacity: 0.8"/>
     <use xlink:href="#m8e699ac080" x="374.621576" y="58.855205" style="fill-opacity: 0.8; stroke: #000000; stroke-opacity: 0.8"/>
     <use xlink:href="#m8e699ac080" x="377.520787" y="105.055389" style="fill-opacity: 0.8; stroke: #000000; stroke-opacity: 0.8"/>
     <use xlink:href="#m8e699ac080" x="369.112816" y="88.568894" style="fill-opacity: 0.8; stroke: #000000; stroke-opacity: 0.8"/>
     <use xlink:href="#m8e699ac080" x="251.873229" y="55.739984" style="fill-opacity: 0.8; stroke: #000000; stroke-opacity: 0.8"/>
     <use xlink:href="#m8e699ac080" x="175.529019" y="20.383853" style="fill-opacity: 0.8; stroke: #000000; stroke-opacity: 0.8"/>
     <use xlink:href="#m8e699ac080" x="372.008622" y="103.996639" style="fill-opacity: 0.8; stroke: #000000; stroke-opacity: 0.8"/>
     <use xlink:href="#m8e699ac080" x="264.362321" y="42.96001" style="fill-opacity: 0.8; stroke: #000000; stroke-opacity: 0.8"/>
     <use xlink:href="#m8e699ac080" x="380.259916" y="84.178019" style="fill-opacity: 0.8; stroke: #000000; stroke-opacity: 0.8"/>
     <use xlink:href="#m8e699ac080" x="379.606713" y="98.808558" style="fill-opacity: 0.8; stroke: #000000; stroke-opacity: 0.8"/>
     <use xlink:href="#m8e699ac080" x="355.799486" y="72.373879" style="fill-opacity: 0.8; stroke: #000000; stroke-opacity: 0.8"/>
     <use xlink:href="#m8e699ac080" x="235.577848" y="51.341034" style="fill-opacity: 0.8; stroke: #000000; stroke-opacity: 0.8"/>
     <use xlink:href="#m8e699ac080" x="255.088627" y="67.290534" style="fill-opacity: 0.8; stroke: #000000; stroke-opacity: 0.8"/>
     <use xlink:href="#m8e699ac080" x="355.396398" y="78.131224" style="fill-opacity: 0.8; stroke: #000000; stroke-opacity: 0.8"/>
     <use xlink:href="#m8e699ac080" x="240.414843" y="61.045611" style="fill-opacity: 0.8; stroke: #000000; stroke-opacity: 0.8"/>
     <use xlink:href="#m8e699ac080" x="208.682945" y="47.033242" style="fill-opacity: 0.8; stroke: #000000; stroke-opacity: 0.8"/>
     <use xlink:href="#m8e699ac080" x="292.045193" y="56.164882" style="fill-opacity: 0.8; stroke: #000000; stroke-opacity: 0.8"/>
     <use xlink:href="#m8e699ac080" x="373.695247" y="59.353736" style="fill-opacity: 0.8; stroke: #000000; stroke-opacity: 0.8"/>
     <use xlink:href="#m8e699ac080" x="322.01201" y="90.67223" style="fill-opacity: 0.8; stroke: #000000; stroke-opacity: 0.8"/>
     <use xlink:href="#m8e699ac080" x="294.899185" y="34.856812" style="fill-opacity: 0.8; stroke: #000000; stroke-opacity: 0.8"/>
     <use xlink:href="#m8e699ac080" x="193.117975" y="74.55799" style="fill-opacity: 0.8; stroke: #000000; stroke-opacity: 0.8"/>
     <use xlink:href="#m8e699ac080" x="304.573138" y="70.883214" style="fill-opacity: 0.8; stroke: #000000; stroke-opacity: 0.8"/>
     <use xlink:href="#m8e699ac080" x="385.2962" y="76.61606" style="fill-opacity: 0.8; stroke: #000000; stroke-opacity: 0.8"/>
     <use xlink:href="#m8e699ac080" x="202.353164" y="43.2261" style="fill-opacity: 0.8; stroke: #000000; stroke-opacity: 0.8"/>
     <use xlink:href="#m8e699ac080" x="283.764766" y="73.576372" style="fill-opacity: 0.8; stroke: #000000; stroke-opacity: 0.8"/>
     <use xlink:href="#m8e699ac080" x="361.043382" y="83.44116" style="fill-opacity: 0.8; stroke: #000000; stroke-opacity: 0.8"/>
     <use xlink:href="#m8e699ac080" x="331.641358" y="81.581001" style="fill-opacity: 0.8; stroke: #000000; stroke-opacity: 0.8"/>
     <use xlink:href="#m8e699ac080" x="322.224219" y="81.06145" style="fill-opacity: 0.8; stroke: #000000; stroke-opacity: 0.8"/>
     <use xlink:href="#m8e699ac080" x="323.401197" y="59.880848" style="fill-opacity: 0.8; stroke: #000000; stroke-opacity: 0.8"/>
     <use xlink:href="#m8e699ac080" x="249.577202" y="51.894475" style="fill-opacity: 0.8; stroke: #000000; stroke-opacity: 0.8"/>
     <use xlink:href="#m8e699ac080" x="235.393382" y="64.583333" style="fill-opacity: 0.8; stroke: #000000; stroke-opacity: 0.8"/>
     <use xlink:href="#m8e699ac080" x="346.404855" y="63.910325" style="fill-opacity: 0.8; stroke: #000000; stroke-opacity: 0.8"/>
     <use xlink:href="#m8e699ac080" x="346.566763" y="72.762718" style="fill-opacity: 0.8; stroke: #000000; stroke-opacity: 0.8"/>
     <use xlink:href="#m8e699ac080" x="358.826302" y="67.779562" style="fill-opacity: 0.8; stroke: #000000; stroke-opacity: 0.8"/>
     <use xlink:href="#m8e699ac080" x="368.76331" y="72.569937" style="fill-opacity: 0.8; stroke: #000000; stroke-opacity: 0.8"/>
     <use xlink:href="#m8e699ac080" x="282.260866" y="76.335816" style="fill-opacity: 0.8; stroke: #000000; stroke-opacity: 0.8"/>
     <use xlink:href="#m8e699ac080" x="280.145947" y="71.894526" style="fill-opacity: 0.8; stroke: #000000; stroke-opacity: 0.8"/>
     <use xlink:href="#m8e699ac080" x="344.023073" y="65.683735" style="fill-opacity: 0.8; stroke: #000000; stroke-opacity: 0.8"/>
     <use xlink:href="#m8e699ac080" x="312.097035" y="61.096858" style="fill-opacity: 0.8; stroke: #000000; stroke-opacity: 0.8"/>
     <use xlink:href="#m8e699ac080" x="323.289876" y="72.818724" style="fill-opacity: 0.8; stroke: #000000; stroke-opacity: 0.8"/>
     <use xlink:href="#m8e699ac080" x="343.484446" y="74.951557" style="fill-opacity: 0.8; stroke: #000000; stroke-opacity: 0.8"/>
     <use xlink:href="#m8e699ac080" x="363.762286" y="61.883441" style="fill-opacity: 0.8; stroke: #000000; stroke-opacity: 0.8"/>
     <use xlink:href="#m8e699ac080" x="244.950517" y="65.057873" style="fill-opacity: 0.8; stroke: #000000; stroke-opacity: 0.8"/>
     <use xlink:href="#m8e699ac080" x="253.040717" y="49.783111" style="fill-opacity: 0.8; stroke: #000000; stroke-opacity: 0.8"/>
     <use xlink:href="#m8e699ac080" x="192.430396" y="48.361012" style="fill-opacity: 0.8; stroke: #000000; stroke-opacity: 0.8"/>
     <use xlink:href="#m8e699ac080" x="296.668193" y="70.22385" style="fill-opacity: 0.8; stroke: #000000; stroke-opacity: 0.8"/>
     <use xlink:href="#m8e699ac080" x="179.938244" y="26.398337" style="fill-opacity: 0.8; stroke: #000000; stroke-opacity: 0.8"/>
     <use xlink:href="#m8e699ac080" x="272.415086" y="49.659922" style="fill-opacity: 0.8; stroke: #000000; stroke-opacity: 0.8"/>
     <use xlink:href="#m8e699ac080" x="288.998194" y="53.278656" style="fill-opacity: 0.8; stroke: #000000; stroke-opacity: 0.8"/>
     <use xlink:href="#m8e699ac080" x="233.87585" y="34.514287" style="fill-opacity: 0.8; stroke: #000000; stroke-opacity: 0.8"/>
     <use xlink:href="#m8e699ac080" x="299.370061" y="67.230768" style="fill-opacity: 0.8; stroke: #000000; stroke-opacity: 0.8"/>
     <use xlink:href="#m8e699ac080" x="178.766931" y="32.361372" style="fill-opacity: 0.8; stroke: #000000; stroke-opacity: 0.8"/>
     <use xlink:href="#m8e699ac080" x="180.240846" y="47.440464" style="fill-opacity: 0.8; stroke: #000000; stroke-opacity: 0.8"/>
     <use xlink:href="#m8e699ac080" x="349.254435" y="73.069353" style="fill-opacity: 0.8; stroke: #000000; stroke-opacity: 0.8"/>
     <use xlink:href="#m8e699ac080" x="249.727757" y="59.17905" style="fill-opacity: 0.8; stroke: #000000; stroke-opacity: 0.8"/>
     <use xlink:href="#m8e699ac080" x="199.550054" y="45.383902" style="fill-opacity: 0.8; stroke: #000000; stroke-opacity: 0.8"/>
     <use xlink:href="#m8e699ac080" x="284.60711" y="55.618448" style="fill-opacity: 0.8; stroke: #000000; stroke-opacity: 0.8"/>
     <use xlink:href="#m8e699ac080" x="337.93158" y="87.728611" style="fill-opacity: 0.8; stroke: #000000; stroke-opacity: 0.8"/>
     <use xlink:href="#m8e699ac080" x="218.654401" y="19.639091" style="fill-opacity: 0.8; stroke: #000000; stroke-opacity: 0.8"/>
     <use xlink:href="#m8e699ac080" x="306.269887" y="83.954049" style="fill-opacity: 0.8; stroke: #000000; stroke-opacity: 0.8"/>
     <use xlink:href="#m8e699ac080" x="190.571957" y="63.042999" style="fill-opacity: 0.8; stroke: #000000; stroke-opacity: 0.8"/>
     <use xlink:href="#m8e699ac080" x="183.32592" y="26.217946" style="fill-opacity: 0.8; stroke: #000000; stroke-opacity: 0.8"/>
     <use xlink:href="#m8e699ac080" x="286.568194" y="53.099644" style="fill-opacity: 0.8; stroke: #000000; stroke-opacity: 0.8"/>
     <use xlink:href="#m8e699ac080" x="288.565677" y="56.008732" style="fill-opacity: 0.8; stroke: #000000; stroke-opacity: 0.8"/>
     <use xlink:href="#m8e699ac080" x="309.399277" y="60.269364" style="fill-opacity: 0.8; stroke: #000000; stroke-opacity: 0.8"/>
     <use xlink:href="#m8e699ac080" x="328.482297" y="73.767433" style="fill-opacity: 0.8; stroke: #000000; stroke-opacity: 0.8"/>
     <use xlink:href="#m8e699ac080" x="382.239486" y="98.100465" style="fill-opacity: 0.8; stroke: #000000; stroke-opacity: 0.8"/>
     <use xlink:href="#m8e699ac080" x="283.327989" y="63.085663" style="fill-opacity: 0.8; stroke: #000000; stroke-opacity: 0.8"/>
     <use xlink:href="#m8e699ac080" x="241.71367" y="65.660496" style="fill-opacity: 0.8; stroke: #000000; stroke-opacity: 0.8"/>
     <use xlink:href="#m8e699ac080" x="343.353911" y="62.15275" style="fill-opacity: 0.8; stroke: #000000; stroke-opacity: 0.8"/>
     <use xlink:href="#m8e699ac080" x="230.494727" y="55.439502" style="fill-opacity: 0.8; stroke: #000000; stroke-opacity: 0.8"/>
     <use xlink:href="#m8e699ac080" x="266.684117" y="73.051131" style="fill-opacity: 0.8; stroke: #000000; stroke-opacity: 0.8"/>
     <use xlink:href="#m8e699ac080" x="189.088757" y="49.442203" style="fill-opacity: 0.8; stroke: #000000; stroke-opacity: 0.8"/>
     <use xlink:href="#m8e699ac080" x="177.658579" y="36.136834" style="fill-opacity: 0.8; stroke: #000000; stroke-opacity: 0.8"/>
     <use xlink:href="#m8e699ac080" x="379.397599" y="92.544751" style="fill-opacity: 0.8; stroke: #000000; stroke-opacity: 0.8"/>
     <use xlink:href="#m8e699ac080" x="352.134181" y="90.735596" style="fill-opacity: 0.8; stroke: #000000; stroke-opacity: 0.8"/>
     <use xlink:href="#m8e699ac080" x="322.000045" y="68.611571" style="fill-opacity: 0.8; stroke: #000000; stroke-opacity: 0.8"/>
     <use xlink:href="#m8e699ac080" x="260.223098" y="55.772096" style="fill-opacity: 0.8; stroke: #000000; stroke-opacity: 0.8"/>
     <use xlink:href="#m8e699ac080" x="209.501176" y="56.441119" style="fill-opacity: 0.8; stroke: #000000; stroke-opacity: 0.8"/>
     <use xlink:href="#m8e699ac080" x="205.872904" y="55.153562" style="fill-opacity: 0.8; stroke: #000000; stroke-opacity: 0.8"/>
     <use xlink:href="#m8e699ac080" x="226.063183" y="48.875284" style="fill-opacity: 0.8; stroke: #000000; stroke-opacity: 0.8"/>
     <use xlink:href="#m8e699ac080" x="290.414876" y="87.245655" style="fill-opacity: 0.8; stroke: #000000; stroke-opacity: 0.8"/>
     <use xlink:href="#m8e699ac080" x="326.008085" y="94.027429" style="fill-opacity: 0.8; stroke: #000000; stroke-opacity: 0.8"/>
     <use xlink:href="#m8e699ac080" x="314.299628" y="81.33875" style="fill-opacity: 0.8; stroke: #000000; stroke-opacity: 0.8"/>
     <use xlink:href="#m8e699ac080" x="232.453717" y="56.834528" style="fill-opacity: 0.8; stroke: #000000; stroke-opacity: 0.8"/>
     <use xlink:href="#m8e699ac080" x="377.722398" y="79.174654" style="fill-opacity: 0.8; stroke: #000000; stroke-opacity: 0.8"/>
     <use xlink:href="#m8e699ac080" x="331.023268" y="52.145751" style="fill-opacity: 0.8; stroke: #000000; stroke-opacity: 0.8"/>
     <use xlink:href="#m8e699ac080" x="291.518468" y="53.144331" style="fill-opacity: 0.8; stroke: #000000; stroke-opacity: 0.8"/>
     <use xlink:href="#m8e699ac080" x="303.865773" y="70.857814" style="fill-opacity: 0.8; stroke: #000000; stroke-opacity: 0.8"/>
     <use xlink:href="#m8e699ac080" x="262.514728" y="60.178127" style="fill-opacity: 0.8; stroke: #000000; stroke-opacity: 0.8"/>
     <use xlink:href="#m8e699ac080" x="225.522533" y="67.144804" style="fill-opacity: 0.8; stroke: #000000; stroke-opacity: 0.8"/>
    </g>
   </g>
   <g id="FillBetweenPolyCollection_1">
    <defs>
     <path id="m75d4d5eaec" d="M 87.178018 -149.49891 
L 87.178018 -123.450195 
L 90.189313 -124.903552 
L 93.200608 -126.346925 
L 96.211903 -127.790297 
L 99.223198 -129.234621 
L 102.234492 -130.75631 
L 105.245787 -132.296894 
L 108.257082 -133.787967 
L 111.268377 -135.161716 
L 114.279671 -136.518775 
L 117.290966 -138.036474 
L 120.302261 -139.583134 
L 123.313556 -141.082651 
L 126.32485 -142.527698 
L 129.336145 -143.955871 
L 132.34744 -145.366202 
L 135.358735 -146.808184 
L 138.370029 -148.169339 
L 141.381324 -149.498387 
L 144.392619 -150.974471 
L 147.403914 -152.497895 
L 150.415209 -153.942418 
L 153.426503 -155.369909 
L 156.437798 -156.819305 
L 159.449093 -158.258507 
L 162.460388 -159.649339 
L 165.471682 -161.099236 
L 168.482977 -162.526321 
L 171.494272 -163.997381 
L 174.505567 -165.468441 
L 177.516861 -166.931337 
L 180.528156 -168.319691 
L 183.539451 -169.760396 
L 186.550746 -171.168633 
L 189.562041 -172.555869 
L 192.573335 -173.973111 
L 195.58463 -175.341104 
L 198.595925 -176.766512 
L 201.60722 -178.161838 
L 204.618514 -179.557065 
L 207.629809 -181.043769 
L 210.641104 -182.462848 
L 213.652399 -183.746272 
L 216.663693 -185.192791 
L 219.674988 -186.612936 
L 222.686283 -188.082885 
L 225.697578 -189.526365 
L 228.708872 -190.905727 
L 231.720167 -192.189851 
L 234.731462 -193.409816 
L 237.742757 -194.629781 
L 240.754052 -195.850233 
L 243.765346 -197.169107 
L 246.776641 -198.522876 
L 249.787936 -199.761133 
L 252.799231 -201.004749 
L 255.810525 -202.364912 
L 258.82182 -203.615929 
L 261.833115 -204.957785 
L 264.84441 -206.300295 
L 267.855704 -207.545482 
L 270.866999 -208.888467 
L 273.878294 -210.232333 
L 276.889589 -211.311692 
L 279.900883 -212.579505 
L 282.912178 -213.849296 
L 285.923473 -215.119086 
L 288.934768 -216.320047 
L 291.946063 -217.49199 
L 294.957357 -218.663933 
L 297.968652 -219.859629 
L 300.979947 -221.090631 
L 303.991242 -222.321634 
L 307.002536 -223.527701 
L 310.013831 -224.732927 
L 313.025126 -226.0219 
L 316.036421 -227.255489 
L 319.047715 -228.585763 
L 322.05901 -229.937722 
L 325.070305 -231.079799 
L 328.0816 -232.312932 
L 331.092894 -233.493592 
L 334.104189 -234.673327 
L 337.115484 -235.882545 
L 340.126779 -237.035014 
L 343.138074 -238.20878 
L 346.149368 -239.387581 
L 349.160663 -240.659849 
L 352.171958 -241.961516 
L 355.183253 -243.233841 
L 358.194547 -244.490575 
L 361.205842 -245.587954 
L 364.217137 -246.907407 
L 367.228432 -248.203067 
L 370.239726 -249.437998 
L 373.251021 -250.673414 
L 376.262316 -251.988671 
L 379.273611 -253.149495 
L 382.284906 -254.351238 
L 385.2962 -255.50125 
L 385.2962 -280.980909 
L 385.2962 -280.980909 
L 382.284906 -279.488807 
L 379.273611 -278.078812 
L 376.262316 -276.558795 
L 373.251021 -275.107178 
L 370.239726 -273.703811 
L 367.228432 -272.299244 
L 364.217137 -270.894398 
L 361.205842 -269.474495 
L 358.194547 -268.010638 
L 355.183253 -266.546782 
L 352.171958 -265.082925 
L 349.160663 -263.619068 
L 346.149368 -262.294023 
L 343.138074 -260.980184 
L 340.126779 -259.666345 
L 337.115484 -258.217288 
L 334.104189 -256.745638 
L 331.092894 -255.262821 
L 328.0816 -253.762348 
L 325.070305 -252.261875 
L 322.05901 -250.862709 
L 319.047715 -249.465317 
L 316.036421 -247.996002 
L 313.025126 -246.634914 
L 310.013831 -245.252494 
L 307.002536 -243.944495 
L 303.991242 -242.600589 
L 300.979947 -241.18887 
L 297.968652 -239.837416 
L 294.957357 -238.466773 
L 291.946063 -237.188976 
L 288.934768 -235.811822 
L 285.923473 -234.484424 
L 282.912178 -233.050027 
L 279.900883 -231.662456 
L 276.889589 -230.268407 
L 273.878294 -228.875737 
L 270.866999 -227.523075 
L 267.855704 -226.153023 
L 264.84441 -224.751455 
L 261.833115 -223.347512 
L 258.82182 -222.01778 
L 255.810525 -220.724464 
L 252.799231 -219.406679 
L 249.787936 -218.06969 
L 246.776641 -216.754031 
L 243.765346 -215.412253 
L 240.754052 -214.070201 
L 237.742757 -212.72815 
L 234.731462 -211.386098 
L 231.720167 -210.076133 
L 228.708872 -208.788738 
L 225.697578 -207.501344 
L 222.686283 -206.21395 
L 219.674988 -204.918342 
L 216.663693 -203.593998 
L 213.652399 -202.179786 
L 210.641104 -200.863576 
L 207.629809 -199.570951 
L 204.618514 -198.215279 
L 201.60722 -196.934552 
L 198.595925 -195.592587 
L 195.58463 -194.250621 
L 192.573335 -192.955722 
L 189.562041 -191.747692 
L 186.550746 -190.436529 
L 183.539451 -189.222376 
L 180.528156 -188.006414 
L 177.516861 -186.742491 
L 174.505567 -185.460672 
L 171.494272 -184.178852 
L 168.482977 -182.895365 
L 165.471682 -181.61163 
L 162.460388 -180.327896 
L 159.449093 -179.05606 
L 156.437798 -177.817854 
L 153.426503 -176.579649 
L 150.415209 -175.334412 
L 147.403914 -174.049021 
L 144.392619 -172.762217 
L 141.381324 -171.47614 
L 138.370029 -170.194335 
L 135.358735 -168.969055 
L 132.34744 -167.760758 
L 129.336145 -166.60195 
L 126.32485 -165.345711 
L 123.313556 -164.063711 
L 120.302261 -162.838436 
L 117.290966 -161.61316 
L 114.279671 -160.391308 
L 111.268377 -159.199805 
L 108.257082 -158.008302 
L 105.245787 -156.787767 
L 102.234492 -155.511293 
L 99.223198 -154.310833 
L 96.211903 -153.077654 
L 93.200608 -151.91711 
L 90.189313 -150.772805 
L 87.178018 -149.49891 
z
" style="stroke: #ffffff; stroke-opacity: 0.15; stroke-width: 1.5"/>
    </defs>
    <g clip-path="url(#p077cb92cc9)">
     <use xlink:href="#m75d4d5eaec" x="0" y="336.111328" style="fill-opacity: 0.15; stroke: #ffffff; stroke-opacity: 0.15; stroke-width: 1.5"/>
    </g>
   </g>
   <g id="line2d_23">
    <path d="M 87.178018 199.583155 
L 90.189313 198.249038 
L 93.200608 196.914921 
L 96.211903 195.580803 
L 99.223198 194.246686 
L 102.234492 192.912569 
L 105.245787 191.578452 
L 108.257082 190.244334 
L 111.268377 188.910217 
L 114.279671 187.5761 
L 117.290966 186.241983 
L 120.302261 184.907865 
L 123.313556 183.573748 
L 126.32485 182.239631 
L 129.336145 180.905514 
L 132.34744 179.571396 
L 135.358735 178.237279 
L 138.370029 176.903162 
L 141.381324 175.569045 
L 144.392619 174.234927 
L 147.403914 172.90081 
L 150.415209 171.566693 
L 153.426503 170.232575 
L 156.437798 168.898458 
L 159.449093 167.564341 
L 162.460388 166.230224 
L 165.471682 164.896106 
L 168.482977 163.561989 
L 171.494272 162.227872 
L 174.505567 160.893755 
L 177.516861 159.559637 
L 180.528156 158.22552 
L 183.539451 156.891403 
L 186.550746 155.557286 
L 189.562041 154.223168 
L 192.573335 152.889051 
L 195.58463 151.554934 
L 198.595925 150.220816 
L 201.60722 148.886699 
L 204.618514 147.552582 
L 207.629809 146.218465 
L 210.641104 144.884347 
L 213.652399 143.55023 
L 216.663693 142.216113 
L 219.674988 140.881996 
L 222.686283 139.547878 
L 225.697578 138.213761 
L 228.708872 136.879644 
L 231.720167 135.545527 
L 234.731462 134.211409 
L 237.742757 132.877292 
L 240.754052 131.543175 
L 243.765346 130.209057 
L 246.776641 128.87494 
L 249.787936 127.540823 
L 252.799231 126.206706 
L 255.810525 124.872588 
L 258.82182 123.538471 
L 261.833115 122.204354 
L 264.84441 120.870237 
L 267.855704 119.536119 
L 270.866999 118.202002 
L 273.878294 116.867885 
L 276.889589 115.533768 
L 279.900883 114.19965 
L 282.912178 112.865533 
L 285.923473 111.531416 
L 288.934768 110.197298 
L 291.946063 108.863181 
L 294.957357 107.529064 
L 297.968652 106.194947 
L 300.979947 104.860829 
L 303.991242 103.526712 
L 307.002536 102.192595 
L 310.013831 100.858478 
L 313.025126 99.52436 
L 316.036421 98.190243 
L 319.047715 96.856126 
L 322.05901 95.522009 
L 325.070305 94.187891 
L 328.0816 92.853774 
L 331.092894 91.519657 
L 334.104189 90.185539 
L 337.115484 88.851422 
L 340.126779 87.517305 
L 343.138074 86.183188 
L 346.149368 84.84907 
L 349.160663 83.514953 
L 352.171958 82.180836 
L 355.183253 80.846719 
L 358.194547 79.512601 
L 361.205842 78.178484 
L 364.217137 76.844367 
L 367.228432 75.51025 
L 370.239726 74.176132 
L 373.251021 72.842015 
L 376.262316 71.507898 
L 379.273611 70.17378 
L 382.284906 68.839663 
L 385.2962 67.505546 
" clip-path="url(#p077cb92cc9)" style="fill: none; stroke: #000000; stroke-width: 3.375; stroke-linecap: round"/>
   </g>
   <g id="patch_3">
    <path d="M 72.272109 280.86 
L 72.272109 7.2 
" style="fill: none; stroke: #000000; stroke-width: 1.2; stroke-linejoin: miter; stroke-linecap: square"/>
   </g>
   <g id="patch_4">
    <path d="M 72.272109 280.86 
L 400.202109 280.86 
" style="fill: none; stroke: #000000; stroke-width: 1.2; stroke-linejoin: miter; stroke-linecap: square"/>
   </g>
  </g>
 </g>
 <defs>
  <clipPath id="p077cb92cc9">
   <rect x="72.272109" y="7.2" width="327.93" height="273.66"/>
  </clipPath>
 </defs>
</svg>
